G04 (created by PCBNEW (2013-07-07 BZR 4022)-stable) date 6/14/2014 1:37:33 PM*
%MOIN*%
G04 Gerber Fmt 3.4, Leading zero omitted, Abs format*
%FSLAX34Y34*%
G01*
G70*
G90*
G04 APERTURE LIST*
%ADD10C,0.00393701*%
%ADD11C,0.16*%
%ADD12R,0.055X0.055*%
%ADD13C,0.055*%
%ADD14C,0.1437*%
%ADD15R,0.0591X0.0591*%
%ADD16C,0.0591*%
%ADD17C,0.0708661*%
%ADD18C,0.06*%
%ADD19R,0.06X0.06*%
%ADD20C,0.066*%
%ADD21C,0.0590551*%
%ADD22C,0.0984252*%
%ADD23C,0.0393701*%
%ADD24C,0.019685*%
G04 APERTURE END LIST*
G54D10*
G54D11*
X46929Y-18740D03*
X10708Y-18740D03*
X46929Y-3937D03*
G54D12*
X16129Y-17925D03*
G54D13*
X15129Y-17925D03*
X15129Y-18925D03*
G54D12*
X36129Y-15838D03*
G54D13*
X35129Y-15838D03*
X35129Y-16838D03*
X9602Y-9779D03*
X9602Y-7779D03*
X12602Y-9779D03*
X12602Y-7779D03*
G54D14*
X4389Y-18873D03*
X4389Y-14200D03*
G54D15*
X6889Y-14785D03*
G54D16*
X7889Y-15285D03*
X6889Y-15785D03*
X7889Y-16285D03*
X6889Y-16785D03*
X7889Y-17285D03*
X6889Y-17785D03*
X7889Y-18285D03*
G54D17*
X37145Y-11259D03*
X34783Y-10472D03*
X39507Y-10472D03*
X34783Y-5669D03*
X39507Y-5669D03*
G54D18*
X25433Y-13759D03*
X25433Y-8759D03*
X41732Y-10531D03*
X41732Y-5531D03*
X39881Y-13681D03*
X39881Y-18681D03*
X27007Y-8759D03*
X27007Y-13759D03*
X15275Y-9783D03*
X15275Y-4783D03*
X22283Y-8759D03*
X22283Y-13759D03*
X23858Y-8759D03*
X23858Y-13759D03*
X20708Y-13759D03*
X20708Y-8759D03*
G54D19*
X30645Y-5976D03*
G54D18*
X30645Y-6976D03*
X29645Y-5976D03*
X29645Y-6976D03*
X28645Y-5976D03*
X28645Y-6976D03*
X27645Y-5976D03*
X27645Y-6976D03*
X26645Y-5976D03*
X26645Y-6976D03*
X25645Y-5976D03*
X25645Y-6976D03*
X24645Y-5976D03*
X24645Y-6976D03*
X23645Y-5976D03*
X23645Y-6976D03*
X22645Y-5976D03*
X22645Y-6976D03*
X21645Y-5976D03*
X21645Y-6976D03*
X20645Y-5976D03*
X20645Y-6976D03*
X19645Y-5976D03*
X19645Y-6976D03*
X18645Y-5976D03*
X18645Y-6976D03*
G54D20*
X24527Y-16035D03*
X24527Y-17035D03*
G54D19*
X37433Y-12992D03*
G54D18*
X33433Y-12992D03*
G54D19*
X41732Y-12291D03*
G54D18*
X41732Y-16291D03*
G54D12*
X30192Y-15338D03*
G54D13*
X30192Y-16338D03*
X30192Y-17338D03*
X33192Y-17338D03*
X33192Y-16338D03*
X33192Y-15338D03*
G54D11*
X10708Y-3976D03*
G54D21*
X4881Y-9763D03*
X4881Y-7795D03*
X45118Y-8110D03*
X45118Y-10078D03*
X45118Y-12637D03*
X45118Y-14606D03*
G54D18*
X29015Y-13720D03*
X29015Y-8720D03*
X30551Y-8720D03*
X30551Y-13720D03*
G54D20*
X43464Y-3122D03*
X43464Y-4122D03*
X28070Y-16035D03*
X28070Y-17035D03*
X21023Y-16035D03*
X21023Y-17035D03*
G54D22*
X37433Y-12992D02*
X36377Y-12992D01*
X35905Y-6870D02*
X35777Y-6742D01*
X35905Y-12519D02*
X35905Y-6870D01*
X36377Y-12992D02*
X35905Y-12519D01*
X37433Y-12992D02*
X37834Y-12992D01*
X37834Y-12992D02*
X38523Y-13681D01*
X38523Y-13681D02*
X39881Y-13681D01*
X41732Y-10531D02*
X44665Y-10531D01*
X44665Y-10531D02*
X45118Y-10078D01*
X39507Y-10472D02*
X41673Y-10472D01*
X41673Y-10472D02*
X41732Y-10531D01*
X34783Y-5669D02*
X34783Y-5748D01*
X34783Y-5748D02*
X35777Y-6742D01*
X35777Y-6742D02*
X36062Y-7027D01*
X36062Y-7027D02*
X36564Y-7529D01*
X36564Y-7529D02*
X36811Y-7775D01*
X36811Y-7775D02*
X37687Y-8651D01*
X37687Y-8651D02*
X38316Y-9281D01*
X38316Y-9281D02*
X39507Y-10472D01*
G54D23*
X30645Y-5976D02*
X30645Y-4622D01*
X16397Y-3661D02*
X15275Y-4783D01*
X29685Y-3661D02*
X16397Y-3661D01*
X30645Y-4622D02*
X29685Y-3661D01*
X29015Y-8720D02*
X30551Y-8720D01*
X30645Y-6976D02*
X30645Y-8625D01*
X30645Y-8625D02*
X30551Y-8720D01*
X30645Y-6976D02*
X31803Y-6976D01*
X7889Y-19590D02*
X7889Y-18285D01*
X7244Y-20236D02*
X7889Y-19590D01*
X3740Y-20236D02*
X7244Y-20236D01*
X2913Y-19409D02*
X3740Y-20236D01*
X2913Y-10314D02*
X2913Y-19409D01*
X4448Y-8779D02*
X2913Y-10314D01*
X13188Y-8779D02*
X4448Y-8779D01*
X14251Y-7716D02*
X13188Y-8779D01*
X14251Y-4448D02*
X14251Y-7716D01*
X15708Y-2992D02*
X14251Y-4448D01*
X29960Y-2992D02*
X15708Y-2992D01*
X32244Y-5275D02*
X29960Y-2992D01*
X32244Y-6535D02*
X32244Y-5275D01*
X31803Y-6976D02*
X32244Y-6535D01*
X24645Y-5976D02*
X24645Y-5551D01*
X5974Y-17785D02*
X6889Y-17785D01*
X5787Y-17598D02*
X5974Y-17785D01*
X5787Y-14251D02*
X5787Y-17598D01*
X7519Y-12519D02*
X5787Y-14251D01*
X14330Y-12519D02*
X7519Y-12519D01*
X17677Y-9173D02*
X14330Y-12519D01*
X17677Y-5629D02*
X17677Y-9173D01*
X18267Y-5039D02*
X17677Y-5629D01*
X24133Y-5039D02*
X18267Y-5039D01*
X24645Y-5551D02*
X24133Y-5039D01*
X15275Y-9783D02*
X15767Y-9783D01*
X25645Y-5055D02*
X25645Y-5976D01*
X24921Y-4330D02*
X25645Y-5055D01*
X17440Y-4330D02*
X24921Y-4330D01*
X16850Y-4921D02*
X17440Y-4330D01*
X16850Y-8700D02*
X16850Y-4921D01*
X15767Y-9783D02*
X16850Y-8700D01*
X12602Y-9779D02*
X12606Y-9783D01*
X12606Y-9783D02*
X15275Y-9783D01*
X9602Y-9779D02*
X12602Y-9779D01*
X4842Y-9763D02*
X9586Y-9763D01*
X9586Y-9763D02*
X9602Y-9779D01*
X23858Y-8759D02*
X23326Y-8759D01*
X9080Y-14094D02*
X7889Y-15285D01*
X15078Y-14094D02*
X9080Y-14094D01*
X18775Y-10397D02*
X15078Y-14094D01*
X21688Y-10397D02*
X18775Y-10397D01*
X23326Y-8759D02*
X21688Y-10397D01*
X23645Y-6976D02*
X23645Y-8547D01*
X23645Y-8547D02*
X23858Y-8759D01*
X22283Y-8759D02*
X21318Y-9724D01*
X8368Y-13307D02*
X6889Y-14785D01*
X14842Y-13307D02*
X8368Y-13307D01*
X18425Y-9724D02*
X14842Y-13307D01*
X21318Y-9724D02*
X18425Y-9724D01*
X22645Y-6976D02*
X22645Y-8397D01*
X22645Y-8397D02*
X22283Y-8759D01*
X20645Y-6976D02*
X20645Y-8696D01*
X20645Y-8696D02*
X20708Y-8759D01*
X7889Y-17285D02*
X8147Y-17285D01*
X24507Y-12834D02*
X25433Y-13759D01*
X19330Y-12834D02*
X24507Y-12834D01*
X16732Y-15433D02*
X19330Y-12834D01*
X10000Y-15433D02*
X16732Y-15433D01*
X8147Y-17285D02*
X10000Y-15433D01*
X25433Y-8759D02*
X26161Y-8759D01*
X26161Y-8759D02*
X26645Y-8275D01*
X26645Y-6976D02*
X26645Y-8275D01*
X26645Y-8275D02*
X26645Y-8397D01*
X26645Y-8397D02*
X27007Y-8759D01*
X24527Y-17035D02*
X24893Y-17035D01*
X27007Y-14921D02*
X27007Y-13759D01*
X24893Y-17035D02*
X27007Y-14921D01*
X16129Y-17925D02*
X20094Y-17925D01*
X20094Y-17925D02*
X20984Y-17035D01*
X20984Y-17035D02*
X24527Y-17035D01*
X12602Y-7779D02*
X13582Y-6799D01*
X28425Y-9803D02*
X27952Y-9330D01*
X31062Y-9803D02*
X28425Y-9803D01*
X32874Y-7992D02*
X31062Y-9803D01*
X32874Y-4960D02*
X32874Y-7992D01*
X30236Y-2322D02*
X32874Y-4960D01*
X15393Y-2322D02*
X30236Y-2322D01*
X13582Y-4133D02*
X15393Y-2322D01*
X13582Y-6799D02*
X13582Y-4133D01*
X27952Y-9330D02*
X27952Y-9015D01*
X9602Y-7779D02*
X12602Y-7779D01*
X4842Y-7795D02*
X9586Y-7795D01*
X9586Y-7795D02*
X9602Y-7779D01*
X27952Y-9015D02*
X27952Y-9330D01*
X27952Y-8937D02*
X27952Y-9015D01*
X27952Y-9330D02*
X27952Y-9448D01*
X9411Y-14763D02*
X7889Y-16285D01*
X15354Y-14763D02*
X9411Y-14763D01*
X19094Y-11023D02*
X15354Y-14763D01*
X22047Y-11023D02*
X19094Y-11023D01*
X22952Y-10118D02*
X22047Y-11023D01*
X27283Y-10118D02*
X22952Y-10118D01*
X27952Y-9448D02*
X27283Y-10118D01*
X28645Y-6976D02*
X28645Y-7692D01*
X28645Y-7692D02*
X27952Y-8385D01*
X27952Y-8385D02*
X27952Y-8661D01*
X27952Y-8661D02*
X27952Y-8937D01*
X27952Y-8937D02*
X27952Y-12814D01*
X27952Y-12814D02*
X27007Y-13759D01*
X22283Y-13759D02*
X22283Y-14736D01*
X22283Y-14736D02*
X20984Y-16035D01*
X39881Y-18681D02*
X32421Y-18681D01*
X31889Y-16338D02*
X33192Y-16338D01*
X31574Y-16653D02*
X31889Y-16338D01*
X31574Y-17834D02*
X31574Y-16653D01*
X32421Y-18681D02*
X31574Y-17834D01*
X30551Y-13720D02*
X30551Y-14980D01*
X30551Y-14980D02*
X30192Y-15338D01*
X23858Y-13759D02*
X23858Y-15366D01*
X23858Y-15366D02*
X24527Y-16035D01*
X35129Y-15838D02*
X34358Y-15838D01*
X34039Y-17338D02*
X33192Y-17338D01*
X34055Y-17322D02*
X34039Y-17338D01*
X34055Y-16141D02*
X34055Y-17322D01*
X34358Y-15838D02*
X34055Y-16141D01*
X43464Y-3122D02*
X42468Y-3122D01*
X41732Y-3858D02*
X41732Y-5531D01*
X42468Y-3122D02*
X41732Y-3858D01*
X28070Y-17035D02*
X29224Y-17035D01*
X29921Y-16338D02*
X30192Y-16338D01*
X29224Y-17035D02*
X29921Y-16338D01*
X28070Y-17035D02*
X28070Y-17755D01*
X26901Y-18925D02*
X15129Y-18925D01*
X28070Y-17755D02*
X26901Y-18925D01*
X29015Y-13720D02*
X29015Y-15090D01*
X29015Y-15090D02*
X28070Y-16035D01*
G54D22*
X41732Y-12291D02*
X41937Y-12291D01*
X44251Y-14606D02*
X45118Y-14606D01*
X41937Y-12291D02*
X44251Y-14606D01*
X37145Y-11259D02*
X38228Y-11259D01*
X39259Y-12291D02*
X41732Y-12291D01*
X38228Y-11259D02*
X39259Y-12291D01*
G54D23*
X20708Y-13759D02*
X19311Y-13759D01*
X15129Y-16681D02*
X15129Y-17925D01*
X15748Y-16062D02*
X15129Y-16681D01*
X17007Y-16062D02*
X15748Y-16062D01*
X19311Y-13759D02*
X17007Y-16062D01*
X33433Y-12992D02*
X34645Y-12992D01*
X35220Y-16929D02*
X35129Y-16838D01*
X37204Y-16929D02*
X35220Y-16929D01*
X37598Y-16535D02*
X37204Y-16929D01*
X37598Y-14566D02*
X37598Y-16535D01*
X37007Y-13976D02*
X37598Y-14566D01*
X35629Y-13976D02*
X37007Y-13976D01*
X34645Y-12992D02*
X35629Y-13976D01*
X33433Y-12992D02*
X33433Y-11822D01*
X33433Y-11822D02*
X34783Y-10472D01*
G54D10*
G36*
X49084Y-20344D02*
X47460Y-20344D01*
X47882Y-20170D01*
X48357Y-19696D01*
X48614Y-19076D01*
X48615Y-18406D01*
X48359Y-17786D01*
X47885Y-17311D01*
X47265Y-17054D01*
X46595Y-17054D01*
X45975Y-17310D01*
X45500Y-17783D01*
X45243Y-18403D01*
X45243Y-19074D01*
X45499Y-19693D01*
X45972Y-20168D01*
X46396Y-20344D01*
X42526Y-20344D01*
X42526Y-16145D01*
X42410Y-15852D01*
X42397Y-15832D01*
X42230Y-15821D01*
X42202Y-15849D01*
X42202Y-15793D01*
X42190Y-15626D01*
X41901Y-15501D01*
X41586Y-15496D01*
X41293Y-15613D01*
X41273Y-15626D01*
X41262Y-15793D01*
X41732Y-16263D01*
X42202Y-15793D01*
X42202Y-15849D01*
X41760Y-16291D01*
X42230Y-16761D01*
X42397Y-16749D01*
X42521Y-16460D01*
X42526Y-16145D01*
X42526Y-20344D01*
X42202Y-20344D01*
X42202Y-16789D01*
X41732Y-16319D01*
X41704Y-16347D01*
X41704Y-16291D01*
X41234Y-15821D01*
X41067Y-15832D01*
X40942Y-16121D01*
X40937Y-16437D01*
X41054Y-16729D01*
X41067Y-16749D01*
X41234Y-16761D01*
X41704Y-16291D01*
X41704Y-16347D01*
X41262Y-16789D01*
X41273Y-16956D01*
X41562Y-17081D01*
X41878Y-17085D01*
X42170Y-16969D01*
X42190Y-16956D01*
X42202Y-16789D01*
X42202Y-20344D01*
X32185Y-20344D01*
X32185Y-19323D01*
X32421Y-19370D01*
X39475Y-19370D01*
X39723Y-19473D01*
X40038Y-19473D01*
X40330Y-19353D01*
X40553Y-19130D01*
X40673Y-18839D01*
X40674Y-18524D01*
X40553Y-18232D01*
X40331Y-18009D01*
X40040Y-17889D01*
X39725Y-17888D01*
X39475Y-17992D01*
X34217Y-17992D01*
X34303Y-17975D01*
X34526Y-17825D01*
X34542Y-17810D01*
X34542Y-17810D01*
X34542Y-17810D01*
X34691Y-17586D01*
X34709Y-17494D01*
X34976Y-17605D01*
X35158Y-17605D01*
X35220Y-17618D01*
X37204Y-17618D01*
X37468Y-17565D01*
X37691Y-17416D01*
X38085Y-17022D01*
X38085Y-17022D01*
X38085Y-17022D01*
X38234Y-16799D01*
X38287Y-16535D01*
X38287Y-14618D01*
X38523Y-14665D01*
X38523Y-14665D01*
X38523Y-14665D01*
X39881Y-14665D01*
X40258Y-14590D01*
X40577Y-14377D01*
X40791Y-14057D01*
X40866Y-13681D01*
X40791Y-13304D01*
X40771Y-13275D01*
X41529Y-13275D01*
X43555Y-15302D01*
X43555Y-15302D01*
X43875Y-15515D01*
X44251Y-15590D01*
X44251Y-15590D01*
X44251Y-15590D01*
X45118Y-15590D01*
X45494Y-15515D01*
X45814Y-15302D01*
X46027Y-14982D01*
X46102Y-14606D01*
X46027Y-14229D01*
X45907Y-14050D01*
X45907Y-12492D01*
X45792Y-12201D01*
X45778Y-12181D01*
X45612Y-12171D01*
X45584Y-12199D01*
X45584Y-12143D01*
X45573Y-11976D01*
X45286Y-11852D01*
X44973Y-11848D01*
X44681Y-11963D01*
X44662Y-11976D01*
X44651Y-12143D01*
X45118Y-12609D01*
X45584Y-12143D01*
X45584Y-12199D01*
X45145Y-12637D01*
X45612Y-13104D01*
X45778Y-13093D01*
X45903Y-12806D01*
X45907Y-12492D01*
X45907Y-14050D01*
X45814Y-13910D01*
X45584Y-13757D01*
X45584Y-13132D01*
X45118Y-12665D01*
X45090Y-12693D01*
X45090Y-12637D01*
X44623Y-12171D01*
X44457Y-12181D01*
X44333Y-12469D01*
X44328Y-12782D01*
X44444Y-13073D01*
X44457Y-13093D01*
X44623Y-13104D01*
X45090Y-12637D01*
X45090Y-12693D01*
X44651Y-13132D01*
X44662Y-13298D01*
X44949Y-13422D01*
X45263Y-13427D01*
X45554Y-13311D01*
X45573Y-13298D01*
X45584Y-13132D01*
X45584Y-13757D01*
X45494Y-13696D01*
X45118Y-13622D01*
X44659Y-13622D01*
X42632Y-11595D01*
X42513Y-11515D01*
X44665Y-11515D01*
X45042Y-11440D01*
X45042Y-11440D01*
X45361Y-11227D01*
X45814Y-10774D01*
X46027Y-10455D01*
X46102Y-10078D01*
X46027Y-9702D01*
X45907Y-9522D01*
X45907Y-7965D01*
X45792Y-7674D01*
X45778Y-7654D01*
X45612Y-7643D01*
X45584Y-7671D01*
X45584Y-7615D01*
X45573Y-7449D01*
X45286Y-7325D01*
X44973Y-7320D01*
X44681Y-7436D01*
X44662Y-7449D01*
X44651Y-7615D01*
X45118Y-8082D01*
X45584Y-7615D01*
X45584Y-7671D01*
X45145Y-8110D01*
X45612Y-8576D01*
X45778Y-8566D01*
X45903Y-8278D01*
X45907Y-7965D01*
X45907Y-9522D01*
X45814Y-9382D01*
X45584Y-9229D01*
X45584Y-8604D01*
X45118Y-8138D01*
X45090Y-8165D01*
X45090Y-8110D01*
X44623Y-7643D01*
X44457Y-7654D01*
X44333Y-7942D01*
X44328Y-8255D01*
X44444Y-8546D01*
X44457Y-8566D01*
X44623Y-8576D01*
X45090Y-8110D01*
X45090Y-8165D01*
X44651Y-8604D01*
X44662Y-8771D01*
X44949Y-8895D01*
X45263Y-8899D01*
X45554Y-8784D01*
X45573Y-8771D01*
X45584Y-8604D01*
X45584Y-9229D01*
X45494Y-9169D01*
X45118Y-9094D01*
X44741Y-9169D01*
X44422Y-9382D01*
X44289Y-9515D01*
X44289Y-3971D01*
X44168Y-3667D01*
X44154Y-3645D01*
X44108Y-3641D01*
X44161Y-3588D01*
X44286Y-3286D01*
X44286Y-2959D01*
X44161Y-2656D01*
X43930Y-2425D01*
X43628Y-2300D01*
X43301Y-2299D01*
X42999Y-2424D01*
X42991Y-2433D01*
X42468Y-2433D01*
X42204Y-2485D01*
X41981Y-2634D01*
X41245Y-3371D01*
X41095Y-3594D01*
X41043Y-3858D01*
X41043Y-5125D01*
X40940Y-5373D01*
X40940Y-5688D01*
X41060Y-5979D01*
X41282Y-6202D01*
X41574Y-6323D01*
X41889Y-6323D01*
X42180Y-6203D01*
X42403Y-5980D01*
X42524Y-5689D01*
X42524Y-5374D01*
X42421Y-5124D01*
X42421Y-4143D01*
X42664Y-3900D01*
X42645Y-3945D01*
X42639Y-4272D01*
X42760Y-4576D01*
X42775Y-4598D01*
X42945Y-4613D01*
X43436Y-4122D01*
X43431Y-4116D01*
X43458Y-4088D01*
X43464Y-4094D01*
X43470Y-4088D01*
X43497Y-4116D01*
X43492Y-4122D01*
X43984Y-4613D01*
X44154Y-4598D01*
X44284Y-4298D01*
X44289Y-3971D01*
X44289Y-9515D01*
X44257Y-9547D01*
X43956Y-9547D01*
X43956Y-4641D01*
X43464Y-4149D01*
X42972Y-4641D01*
X42987Y-4811D01*
X43288Y-4941D01*
X43615Y-4946D01*
X43919Y-4826D01*
X43941Y-4811D01*
X43956Y-4641D01*
X43956Y-9547D01*
X41970Y-9547D01*
X41673Y-9488D01*
X40354Y-9488D01*
X40354Y-5501D01*
X40225Y-5190D01*
X39987Y-4952D01*
X39676Y-4822D01*
X39340Y-4822D01*
X39029Y-4951D01*
X38790Y-5189D01*
X38661Y-5500D01*
X38661Y-5836D01*
X38789Y-6148D01*
X39027Y-6386D01*
X39338Y-6515D01*
X39675Y-6515D01*
X39986Y-6387D01*
X40225Y-6149D01*
X40354Y-5838D01*
X40354Y-5501D01*
X40354Y-9488D01*
X39915Y-9488D01*
X39012Y-8585D01*
X39012Y-8585D01*
X38382Y-7955D01*
X37506Y-7079D01*
X37260Y-6833D01*
X36758Y-6331D01*
X36758Y-6331D01*
X36601Y-6174D01*
X36473Y-6046D01*
X35637Y-5210D01*
X35479Y-4973D01*
X35160Y-4759D01*
X34783Y-4685D01*
X34406Y-4759D01*
X34087Y-4973D01*
X33874Y-5292D01*
X33799Y-5669D01*
X33799Y-5748D01*
X33874Y-6124D01*
X34087Y-6444D01*
X34921Y-7277D01*
X34921Y-9626D01*
X34615Y-9625D01*
X34304Y-9754D01*
X34066Y-9992D01*
X33937Y-10303D01*
X33937Y-10344D01*
X32945Y-11335D01*
X32796Y-11559D01*
X32744Y-11822D01*
X32744Y-12585D01*
X32641Y-12833D01*
X32640Y-13148D01*
X32761Y-13440D01*
X32983Y-13663D01*
X33274Y-13784D01*
X33589Y-13784D01*
X33839Y-13681D01*
X34360Y-13681D01*
X35142Y-14463D01*
X35142Y-14463D01*
X35366Y-14612D01*
X35366Y-14612D01*
X35577Y-14654D01*
X35629Y-14665D01*
X35629Y-14665D01*
X35629Y-14665D01*
X36722Y-14665D01*
X36909Y-14852D01*
X36909Y-16240D01*
X36885Y-16240D01*
X36896Y-16211D01*
X36897Y-16016D01*
X36897Y-15661D01*
X36896Y-15465D01*
X36821Y-15284D01*
X36683Y-15146D01*
X36502Y-15071D01*
X36272Y-15071D01*
X36149Y-15194D01*
X36149Y-15818D01*
X36774Y-15818D01*
X36897Y-15695D01*
X36897Y-15661D01*
X36897Y-16016D01*
X36897Y-15981D01*
X36774Y-15858D01*
X36149Y-15858D01*
X36149Y-15866D01*
X36110Y-15866D01*
X36110Y-15858D01*
X36102Y-15858D01*
X36102Y-15818D01*
X36110Y-15818D01*
X36110Y-15194D01*
X35987Y-15071D01*
X35757Y-15071D01*
X35576Y-15146D01*
X35543Y-15179D01*
X35283Y-15071D01*
X34978Y-15071D01*
X34788Y-15149D01*
X34358Y-15149D01*
X34094Y-15202D01*
X33960Y-15291D01*
X33960Y-15186D01*
X33843Y-14904D01*
X33628Y-14688D01*
X33346Y-14571D01*
X33040Y-14571D01*
X32758Y-14687D01*
X32542Y-14903D01*
X32425Y-15185D01*
X32425Y-15490D01*
X32491Y-15649D01*
X32185Y-15649D01*
X32185Y-9655D01*
X33361Y-8479D01*
X33510Y-8255D01*
X33562Y-7992D01*
X33562Y-4960D01*
X33562Y-4960D01*
X33562Y-4960D01*
X33554Y-4916D01*
X33510Y-4696D01*
X33361Y-4473D01*
X33361Y-4473D01*
X32185Y-3297D01*
X32185Y-2293D01*
X46492Y-2293D01*
X45975Y-2507D01*
X45500Y-2980D01*
X45243Y-3600D01*
X45243Y-4270D01*
X45499Y-4890D01*
X45972Y-5365D01*
X46592Y-5622D01*
X47262Y-5623D01*
X47882Y-5367D01*
X48357Y-4893D01*
X48614Y-4273D01*
X48615Y-3603D01*
X48359Y-2983D01*
X47885Y-2508D01*
X47366Y-2293D01*
X49084Y-2293D01*
X49084Y-20344D01*
X49084Y-20344D01*
G37*
G54D24*
X49084Y-20344D02*
X47460Y-20344D01*
X47882Y-20170D01*
X48357Y-19696D01*
X48614Y-19076D01*
X48615Y-18406D01*
X48359Y-17786D01*
X47885Y-17311D01*
X47265Y-17054D01*
X46595Y-17054D01*
X45975Y-17310D01*
X45500Y-17783D01*
X45243Y-18403D01*
X45243Y-19074D01*
X45499Y-19693D01*
X45972Y-20168D01*
X46396Y-20344D01*
X42526Y-20344D01*
X42526Y-16145D01*
X42410Y-15852D01*
X42397Y-15832D01*
X42230Y-15821D01*
X42202Y-15849D01*
X42202Y-15793D01*
X42190Y-15626D01*
X41901Y-15501D01*
X41586Y-15496D01*
X41293Y-15613D01*
X41273Y-15626D01*
X41262Y-15793D01*
X41732Y-16263D01*
X42202Y-15793D01*
X42202Y-15849D01*
X41760Y-16291D01*
X42230Y-16761D01*
X42397Y-16749D01*
X42521Y-16460D01*
X42526Y-16145D01*
X42526Y-20344D01*
X42202Y-20344D01*
X42202Y-16789D01*
X41732Y-16319D01*
X41704Y-16347D01*
X41704Y-16291D01*
X41234Y-15821D01*
X41067Y-15832D01*
X40942Y-16121D01*
X40937Y-16437D01*
X41054Y-16729D01*
X41067Y-16749D01*
X41234Y-16761D01*
X41704Y-16291D01*
X41704Y-16347D01*
X41262Y-16789D01*
X41273Y-16956D01*
X41562Y-17081D01*
X41878Y-17085D01*
X42170Y-16969D01*
X42190Y-16956D01*
X42202Y-16789D01*
X42202Y-20344D01*
X32185Y-20344D01*
X32185Y-19323D01*
X32421Y-19370D01*
X39475Y-19370D01*
X39723Y-19473D01*
X40038Y-19473D01*
X40330Y-19353D01*
X40553Y-19130D01*
X40673Y-18839D01*
X40674Y-18524D01*
X40553Y-18232D01*
X40331Y-18009D01*
X40040Y-17889D01*
X39725Y-17888D01*
X39475Y-17992D01*
X34217Y-17992D01*
X34303Y-17975D01*
X34526Y-17825D01*
X34542Y-17810D01*
X34542Y-17810D01*
X34542Y-17810D01*
X34691Y-17586D01*
X34709Y-17494D01*
X34976Y-17605D01*
X35158Y-17605D01*
X35220Y-17618D01*
X37204Y-17618D01*
X37468Y-17565D01*
X37691Y-17416D01*
X38085Y-17022D01*
X38085Y-17022D01*
X38085Y-17022D01*
X38234Y-16799D01*
X38287Y-16535D01*
X38287Y-14618D01*
X38523Y-14665D01*
X38523Y-14665D01*
X38523Y-14665D01*
X39881Y-14665D01*
X40258Y-14590D01*
X40577Y-14377D01*
X40791Y-14057D01*
X40866Y-13681D01*
X40791Y-13304D01*
X40771Y-13275D01*
X41529Y-13275D01*
X43555Y-15302D01*
X43555Y-15302D01*
X43875Y-15515D01*
X44251Y-15590D01*
X44251Y-15590D01*
X44251Y-15590D01*
X45118Y-15590D01*
X45494Y-15515D01*
X45814Y-15302D01*
X46027Y-14982D01*
X46102Y-14606D01*
X46027Y-14229D01*
X45907Y-14050D01*
X45907Y-12492D01*
X45792Y-12201D01*
X45778Y-12181D01*
X45612Y-12171D01*
X45584Y-12199D01*
X45584Y-12143D01*
X45573Y-11976D01*
X45286Y-11852D01*
X44973Y-11848D01*
X44681Y-11963D01*
X44662Y-11976D01*
X44651Y-12143D01*
X45118Y-12609D01*
X45584Y-12143D01*
X45584Y-12199D01*
X45145Y-12637D01*
X45612Y-13104D01*
X45778Y-13093D01*
X45903Y-12806D01*
X45907Y-12492D01*
X45907Y-14050D01*
X45814Y-13910D01*
X45584Y-13757D01*
X45584Y-13132D01*
X45118Y-12665D01*
X45090Y-12693D01*
X45090Y-12637D01*
X44623Y-12171D01*
X44457Y-12181D01*
X44333Y-12469D01*
X44328Y-12782D01*
X44444Y-13073D01*
X44457Y-13093D01*
X44623Y-13104D01*
X45090Y-12637D01*
X45090Y-12693D01*
X44651Y-13132D01*
X44662Y-13298D01*
X44949Y-13422D01*
X45263Y-13427D01*
X45554Y-13311D01*
X45573Y-13298D01*
X45584Y-13132D01*
X45584Y-13757D01*
X45494Y-13696D01*
X45118Y-13622D01*
X44659Y-13622D01*
X42632Y-11595D01*
X42513Y-11515D01*
X44665Y-11515D01*
X45042Y-11440D01*
X45042Y-11440D01*
X45361Y-11227D01*
X45814Y-10774D01*
X46027Y-10455D01*
X46102Y-10078D01*
X46027Y-9702D01*
X45907Y-9522D01*
X45907Y-7965D01*
X45792Y-7674D01*
X45778Y-7654D01*
X45612Y-7643D01*
X45584Y-7671D01*
X45584Y-7615D01*
X45573Y-7449D01*
X45286Y-7325D01*
X44973Y-7320D01*
X44681Y-7436D01*
X44662Y-7449D01*
X44651Y-7615D01*
X45118Y-8082D01*
X45584Y-7615D01*
X45584Y-7671D01*
X45145Y-8110D01*
X45612Y-8576D01*
X45778Y-8566D01*
X45903Y-8278D01*
X45907Y-7965D01*
X45907Y-9522D01*
X45814Y-9382D01*
X45584Y-9229D01*
X45584Y-8604D01*
X45118Y-8138D01*
X45090Y-8165D01*
X45090Y-8110D01*
X44623Y-7643D01*
X44457Y-7654D01*
X44333Y-7942D01*
X44328Y-8255D01*
X44444Y-8546D01*
X44457Y-8566D01*
X44623Y-8576D01*
X45090Y-8110D01*
X45090Y-8165D01*
X44651Y-8604D01*
X44662Y-8771D01*
X44949Y-8895D01*
X45263Y-8899D01*
X45554Y-8784D01*
X45573Y-8771D01*
X45584Y-8604D01*
X45584Y-9229D01*
X45494Y-9169D01*
X45118Y-9094D01*
X44741Y-9169D01*
X44422Y-9382D01*
X44289Y-9515D01*
X44289Y-3971D01*
X44168Y-3667D01*
X44154Y-3645D01*
X44108Y-3641D01*
X44161Y-3588D01*
X44286Y-3286D01*
X44286Y-2959D01*
X44161Y-2656D01*
X43930Y-2425D01*
X43628Y-2300D01*
X43301Y-2299D01*
X42999Y-2424D01*
X42991Y-2433D01*
X42468Y-2433D01*
X42204Y-2485D01*
X41981Y-2634D01*
X41245Y-3371D01*
X41095Y-3594D01*
X41043Y-3858D01*
X41043Y-5125D01*
X40940Y-5373D01*
X40940Y-5688D01*
X41060Y-5979D01*
X41282Y-6202D01*
X41574Y-6323D01*
X41889Y-6323D01*
X42180Y-6203D01*
X42403Y-5980D01*
X42524Y-5689D01*
X42524Y-5374D01*
X42421Y-5124D01*
X42421Y-4143D01*
X42664Y-3900D01*
X42645Y-3945D01*
X42639Y-4272D01*
X42760Y-4576D01*
X42775Y-4598D01*
X42945Y-4613D01*
X43436Y-4122D01*
X43431Y-4116D01*
X43458Y-4088D01*
X43464Y-4094D01*
X43470Y-4088D01*
X43497Y-4116D01*
X43492Y-4122D01*
X43984Y-4613D01*
X44154Y-4598D01*
X44284Y-4298D01*
X44289Y-3971D01*
X44289Y-9515D01*
X44257Y-9547D01*
X43956Y-9547D01*
X43956Y-4641D01*
X43464Y-4149D01*
X42972Y-4641D01*
X42987Y-4811D01*
X43288Y-4941D01*
X43615Y-4946D01*
X43919Y-4826D01*
X43941Y-4811D01*
X43956Y-4641D01*
X43956Y-9547D01*
X41970Y-9547D01*
X41673Y-9488D01*
X40354Y-9488D01*
X40354Y-5501D01*
X40225Y-5190D01*
X39987Y-4952D01*
X39676Y-4822D01*
X39340Y-4822D01*
X39029Y-4951D01*
X38790Y-5189D01*
X38661Y-5500D01*
X38661Y-5836D01*
X38789Y-6148D01*
X39027Y-6386D01*
X39338Y-6515D01*
X39675Y-6515D01*
X39986Y-6387D01*
X40225Y-6149D01*
X40354Y-5838D01*
X40354Y-5501D01*
X40354Y-9488D01*
X39915Y-9488D01*
X39012Y-8585D01*
X39012Y-8585D01*
X38382Y-7955D01*
X37506Y-7079D01*
X37260Y-6833D01*
X36758Y-6331D01*
X36758Y-6331D01*
X36601Y-6174D01*
X36473Y-6046D01*
X35637Y-5210D01*
X35479Y-4973D01*
X35160Y-4759D01*
X34783Y-4685D01*
X34406Y-4759D01*
X34087Y-4973D01*
X33874Y-5292D01*
X33799Y-5669D01*
X33799Y-5748D01*
X33874Y-6124D01*
X34087Y-6444D01*
X34921Y-7277D01*
X34921Y-9626D01*
X34615Y-9625D01*
X34304Y-9754D01*
X34066Y-9992D01*
X33937Y-10303D01*
X33937Y-10344D01*
X32945Y-11335D01*
X32796Y-11559D01*
X32744Y-11822D01*
X32744Y-12585D01*
X32641Y-12833D01*
X32640Y-13148D01*
X32761Y-13440D01*
X32983Y-13663D01*
X33274Y-13784D01*
X33589Y-13784D01*
X33839Y-13681D01*
X34360Y-13681D01*
X35142Y-14463D01*
X35142Y-14463D01*
X35366Y-14612D01*
X35366Y-14612D01*
X35577Y-14654D01*
X35629Y-14665D01*
X35629Y-14665D01*
X35629Y-14665D01*
X36722Y-14665D01*
X36909Y-14852D01*
X36909Y-16240D01*
X36885Y-16240D01*
X36896Y-16211D01*
X36897Y-16016D01*
X36897Y-15661D01*
X36896Y-15465D01*
X36821Y-15284D01*
X36683Y-15146D01*
X36502Y-15071D01*
X36272Y-15071D01*
X36149Y-15194D01*
X36149Y-15818D01*
X36774Y-15818D01*
X36897Y-15695D01*
X36897Y-15661D01*
X36897Y-16016D01*
X36897Y-15981D01*
X36774Y-15858D01*
X36149Y-15858D01*
X36149Y-15866D01*
X36110Y-15866D01*
X36110Y-15858D01*
X36102Y-15858D01*
X36102Y-15818D01*
X36110Y-15818D01*
X36110Y-15194D01*
X35987Y-15071D01*
X35757Y-15071D01*
X35576Y-15146D01*
X35543Y-15179D01*
X35283Y-15071D01*
X34978Y-15071D01*
X34788Y-15149D01*
X34358Y-15149D01*
X34094Y-15202D01*
X33960Y-15291D01*
X33960Y-15186D01*
X33843Y-14904D01*
X33628Y-14688D01*
X33346Y-14571D01*
X33040Y-14571D01*
X32758Y-14687D01*
X32542Y-14903D01*
X32425Y-15185D01*
X32425Y-15490D01*
X32491Y-15649D01*
X32185Y-15649D01*
X32185Y-9655D01*
X33361Y-8479D01*
X33510Y-8255D01*
X33562Y-7992D01*
X33562Y-4960D01*
X33562Y-4960D01*
X33562Y-4960D01*
X33554Y-4916D01*
X33510Y-4696D01*
X33361Y-4473D01*
X33361Y-4473D01*
X32185Y-3297D01*
X32185Y-2293D01*
X46492Y-2293D01*
X45975Y-2507D01*
X45500Y-2980D01*
X45243Y-3600D01*
X45243Y-4270D01*
X45499Y-4890D01*
X45972Y-5365D01*
X46592Y-5622D01*
X47262Y-5623D01*
X47882Y-5367D01*
X48357Y-4893D01*
X48614Y-4273D01*
X48615Y-3603D01*
X48359Y-2983D01*
X47885Y-2508D01*
X47366Y-2293D01*
X49084Y-2293D01*
X49084Y-20344D01*
M02*
