M48
;DRILL file {Pcbnew (2013-07-07 BZR 4022)-stable} date 7/9/2014 5:57:48 PM
;FORMAT={-:-/ absolute / metric / decimal}
FMAT,2
METRIC,TZ
T1C0.813
T2C0.889
T3C0.899
T4C1.000
T5C1.016
T6C1.300
%
G90
G05
M71
T1
X19.39Y-15.26
X19.39Y-20.34
X27.01Y-15.26
X27.01Y-20.34
X33.43Y-41.03
X33.43Y-43.57
X33.8Y-7.65
X33.8Y-20.35
X35.97Y-41.03
X47.6Y-17.75
X47.6Y-30.45
X48.4Y-36.23
X48.4Y-38.77
X51.6Y-17.75
X51.6Y-30.45
X55.6Y-17.75
X55.6Y-30.45
X57.3Y-36.23
X57.3Y-38.77
X59.6Y-17.75
X59.6Y-30.45
X63.6Y-17.75
X63.6Y-30.45
X66.3Y-36.23
X66.3Y-38.77
X68.7Y-17.65
X68.7Y-30.35
X71.69Y-34.46
X71.69Y-37.
X71.69Y-39.54
X72.6Y-17.65
X72.6Y-30.35
X79.31Y-34.46
X79.31Y-37.
X79.31Y-39.54
X84.23Y-35.73
X84.23Y-38.27
X86.77Y-35.73
X96.3Y-30.25
X96.3Y-42.95
X101.Y-9.55
X101.Y-22.25
X105.4Y-3.43
X105.4Y-5.97
T2
X79.92Y-28.5
X90.08Y-28.5
X101.Y-26.72
X101.Y-36.88
T3
X12.5Y-33.055
X12.5Y-35.595
X12.5Y-38.135
X12.5Y-40.675
X15.04Y-34.325
X15.04Y-36.865
X15.04Y-39.405
X15.04Y-41.945
T4
X7.4Y-15.3
X7.4Y-20.3
X109.6Y-16.1
X109.6Y-21.1
X109.6Y-27.6
X109.6Y-32.6
T5
X42.36Y-10.68
X42.36Y-13.22
X44.9Y-10.68
X44.9Y-13.22
X47.44Y-10.68
X47.44Y-13.22
X49.98Y-10.68
X49.98Y-13.22
X52.52Y-10.68
X52.52Y-13.22
X55.06Y-10.68
X55.06Y-13.22
X57.6Y-10.68
X57.6Y-13.22
X60.14Y-10.68
X60.14Y-13.22
X62.68Y-10.68
X62.68Y-13.22
X65.22Y-10.68
X65.22Y-13.22
X67.76Y-10.68
X67.76Y-13.22
X70.3Y-10.68
X70.3Y-13.22
X72.84Y-10.68
X72.84Y-13.22
T6
X83.35Y-9.9
X83.35Y-22.1
X89.35Y-24.1
X95.35Y-9.9
X95.35Y-22.1
T0
M30
