G04 (created by PCBNEW (2013-07-07 BZR 4022)-stable) date 5/28/2014 11:13:22 PM*
%MOIN*%
G04 Gerber Fmt 3.4, Leading zero omitted, Abs format*
%FSLAX34Y34*%
G01*
G70*
G90*
G04 APERTURE LIST*
%ADD10C,0.00393701*%
%ADD11C,0.16*%
%ADD12R,0.055X0.055*%
%ADD13C,0.055*%
%ADD14C,0.1437*%
%ADD15R,0.0591X0.0591*%
%ADD16C,0.0591*%
%ADD17C,0.0708661*%
%ADD18C,0.06*%
%ADD19R,0.06X0.06*%
%ADD20C,0.066*%
%ADD21C,0.0590551*%
%ADD22C,0.0984252*%
%ADD23C,0.0393701*%
%ADD24C,0.019685*%
G04 APERTURE END LIST*
G54D10*
G54D11*
X76456Y-47480D03*
X40236Y-47480D03*
X76456Y-32677D03*
G54D12*
X45657Y-46665D03*
G54D13*
X44657Y-46665D03*
X44657Y-47665D03*
G54D12*
X65657Y-44578D03*
G54D13*
X64657Y-44578D03*
X64657Y-45578D03*
X39129Y-38519D03*
X39129Y-36519D03*
X42129Y-38519D03*
X42129Y-36519D03*
G54D14*
X33917Y-47613D03*
X33917Y-42940D03*
G54D15*
X36417Y-43525D03*
G54D16*
X37417Y-44025D03*
X36417Y-44525D03*
X37417Y-45025D03*
X36417Y-45525D03*
X37417Y-46025D03*
X36417Y-46525D03*
X37417Y-47025D03*
G54D17*
X66673Y-40000D03*
X64311Y-39212D03*
X69035Y-39212D03*
X64311Y-34409D03*
X69035Y-34409D03*
G54D18*
X54960Y-42500D03*
X54960Y-37500D03*
X71259Y-39271D03*
X71259Y-34271D03*
X69409Y-42421D03*
X69409Y-47421D03*
X56535Y-37500D03*
X56535Y-42500D03*
X44803Y-38523D03*
X44803Y-33523D03*
X51811Y-37500D03*
X51811Y-42500D03*
X53385Y-37500D03*
X53385Y-42500D03*
X50236Y-42500D03*
X50236Y-37500D03*
G54D19*
X60173Y-34716D03*
G54D18*
X60173Y-35716D03*
X59173Y-34716D03*
X59173Y-35716D03*
X58173Y-34716D03*
X58173Y-35716D03*
X57173Y-34716D03*
X57173Y-35716D03*
X56173Y-34716D03*
X56173Y-35716D03*
X55173Y-34716D03*
X55173Y-35716D03*
X54173Y-34716D03*
X54173Y-35716D03*
X53173Y-34716D03*
X53173Y-35716D03*
X52173Y-34716D03*
X52173Y-35716D03*
X51173Y-34716D03*
X51173Y-35716D03*
X50173Y-34716D03*
X50173Y-35716D03*
X49173Y-34716D03*
X49173Y-35716D03*
X48173Y-34716D03*
X48173Y-35716D03*
G54D20*
X54055Y-44775D03*
X54055Y-45775D03*
G54D19*
X66960Y-41732D03*
G54D18*
X62960Y-41732D03*
G54D19*
X71259Y-41031D03*
G54D18*
X71259Y-45031D03*
G54D12*
X59720Y-44078D03*
G54D13*
X59720Y-45078D03*
X59720Y-46078D03*
X62720Y-46078D03*
X62720Y-45078D03*
X62720Y-44078D03*
G54D11*
X40236Y-32716D03*
G54D21*
X34409Y-38503D03*
X34409Y-36535D03*
X74645Y-36850D03*
X74645Y-38818D03*
X74645Y-41377D03*
X74645Y-43346D03*
G54D18*
X58543Y-42460D03*
X58543Y-37460D03*
X60078Y-37460D03*
X60078Y-42460D03*
G54D20*
X72992Y-31862D03*
X72992Y-32862D03*
X57598Y-44775D03*
X57598Y-45775D03*
X50551Y-44775D03*
X50551Y-45775D03*
G54D22*
X66960Y-41732D02*
X65905Y-41732D01*
X65433Y-35610D02*
X65305Y-35482D01*
X65433Y-41259D02*
X65433Y-35610D01*
X65905Y-41732D02*
X65433Y-41259D01*
X66960Y-41732D02*
X67362Y-41732D01*
X67362Y-41732D02*
X68051Y-42421D01*
X68051Y-42421D02*
X69409Y-42421D01*
X71259Y-39271D02*
X74192Y-39271D01*
X74192Y-39271D02*
X74645Y-38818D01*
X69035Y-39212D02*
X71200Y-39212D01*
X71200Y-39212D02*
X71259Y-39271D01*
X64311Y-34409D02*
X64311Y-34488D01*
X64311Y-34488D02*
X65305Y-35482D01*
X65305Y-35482D02*
X65590Y-35767D01*
X65590Y-35767D02*
X66092Y-36269D01*
X66092Y-36269D02*
X66338Y-36515D01*
X66338Y-36515D02*
X67214Y-37391D01*
X67214Y-37391D02*
X67844Y-38021D01*
X67844Y-38021D02*
X69035Y-39212D01*
G54D23*
X60173Y-34716D02*
X60173Y-33362D01*
X45925Y-32401D02*
X44803Y-33523D01*
X59212Y-32401D02*
X45925Y-32401D01*
X60173Y-33362D02*
X59212Y-32401D01*
X58543Y-37460D02*
X60078Y-37460D01*
X60173Y-35716D02*
X60173Y-37366D01*
X60173Y-37366D02*
X60078Y-37460D01*
X60173Y-35716D02*
X61330Y-35716D01*
X37417Y-48330D02*
X37417Y-47025D01*
X36771Y-48976D02*
X37417Y-48330D01*
X33267Y-48976D02*
X36771Y-48976D01*
X32440Y-48149D02*
X33267Y-48976D01*
X32440Y-39055D02*
X32440Y-48149D01*
X33976Y-37519D02*
X32440Y-39055D01*
X42716Y-37519D02*
X33976Y-37519D01*
X43779Y-36456D02*
X42716Y-37519D01*
X43779Y-33188D02*
X43779Y-36456D01*
X45236Y-31732D02*
X43779Y-33188D01*
X59488Y-31732D02*
X45236Y-31732D01*
X61771Y-34015D02*
X59488Y-31732D01*
X61771Y-35275D02*
X61771Y-34015D01*
X61330Y-35716D02*
X61771Y-35275D01*
X54173Y-34716D02*
X54173Y-34291D01*
X35501Y-46525D02*
X36417Y-46525D01*
X35314Y-46338D02*
X35501Y-46525D01*
X35314Y-42992D02*
X35314Y-46338D01*
X37047Y-41259D02*
X35314Y-42992D01*
X43858Y-41259D02*
X37047Y-41259D01*
X47204Y-37913D02*
X43858Y-41259D01*
X47204Y-34370D02*
X47204Y-37913D01*
X47795Y-33779D02*
X47204Y-34370D01*
X53661Y-33779D02*
X47795Y-33779D01*
X54173Y-34291D02*
X53661Y-33779D01*
X44803Y-38523D02*
X45295Y-38523D01*
X55173Y-33795D02*
X55173Y-34716D01*
X54448Y-33070D02*
X55173Y-33795D01*
X46968Y-33070D02*
X54448Y-33070D01*
X46377Y-33661D02*
X46968Y-33070D01*
X46377Y-37440D02*
X46377Y-33661D01*
X45295Y-38523D02*
X46377Y-37440D01*
X42129Y-38519D02*
X42133Y-38523D01*
X42133Y-38523D02*
X44803Y-38523D01*
X39129Y-38519D02*
X42129Y-38519D01*
X34370Y-38503D02*
X39114Y-38503D01*
X39114Y-38503D02*
X39129Y-38519D01*
X53385Y-37500D02*
X52854Y-37500D01*
X38608Y-42834D02*
X37417Y-44025D01*
X44606Y-42834D02*
X38608Y-42834D01*
X48302Y-39138D02*
X44606Y-42834D01*
X51216Y-39138D02*
X48302Y-39138D01*
X52854Y-37500D02*
X51216Y-39138D01*
X53173Y-35716D02*
X53173Y-37287D01*
X53173Y-37287D02*
X53385Y-37500D01*
X51811Y-37500D02*
X50846Y-38464D01*
X37895Y-42047D02*
X36417Y-43525D01*
X44370Y-42047D02*
X37895Y-42047D01*
X47952Y-38464D02*
X44370Y-42047D01*
X50846Y-38464D02*
X47952Y-38464D01*
X52173Y-35716D02*
X52173Y-37137D01*
X52173Y-37137D02*
X51811Y-37500D01*
X50173Y-35716D02*
X50173Y-37437D01*
X50173Y-37437D02*
X50236Y-37500D01*
X37417Y-46025D02*
X37675Y-46025D01*
X54035Y-41574D02*
X54960Y-42500D01*
X48858Y-41574D02*
X54035Y-41574D01*
X46259Y-44173D02*
X48858Y-41574D01*
X39527Y-44173D02*
X46259Y-44173D01*
X37675Y-46025D02*
X39527Y-44173D01*
X54960Y-37500D02*
X55688Y-37500D01*
X55688Y-37500D02*
X56173Y-37015D01*
X56173Y-35716D02*
X56173Y-37015D01*
X56173Y-37015D02*
X56173Y-37137D01*
X56173Y-37137D02*
X56535Y-37500D01*
X54055Y-45775D02*
X54421Y-45775D01*
X56535Y-43661D02*
X56535Y-42500D01*
X54421Y-45775D02*
X56535Y-43661D01*
X45657Y-46665D02*
X49622Y-46665D01*
X49622Y-46665D02*
X50511Y-45775D01*
X50511Y-45775D02*
X54055Y-45775D01*
X42129Y-36519D02*
X43110Y-35539D01*
X57952Y-38543D02*
X57480Y-38070D01*
X60590Y-38543D02*
X57952Y-38543D01*
X62401Y-36732D02*
X60590Y-38543D01*
X62401Y-33700D02*
X62401Y-36732D01*
X59763Y-31062D02*
X62401Y-33700D01*
X44921Y-31062D02*
X59763Y-31062D01*
X43110Y-32874D02*
X44921Y-31062D01*
X43110Y-35539D02*
X43110Y-32874D01*
X57480Y-38070D02*
X57480Y-37755D01*
X39129Y-36519D02*
X42129Y-36519D01*
X34370Y-36535D02*
X39114Y-36535D01*
X39114Y-36535D02*
X39129Y-36519D01*
X57480Y-37755D02*
X57480Y-38070D01*
X57480Y-37677D02*
X57480Y-37755D01*
X57480Y-38070D02*
X57480Y-38188D01*
X38938Y-43503D02*
X37417Y-45025D01*
X44881Y-43503D02*
X38938Y-43503D01*
X48622Y-39763D02*
X44881Y-43503D01*
X51574Y-39763D02*
X48622Y-39763D01*
X52480Y-38858D02*
X51574Y-39763D01*
X56811Y-38858D02*
X52480Y-38858D01*
X57480Y-38188D02*
X56811Y-38858D01*
X58173Y-35716D02*
X58173Y-36433D01*
X58173Y-36433D02*
X57480Y-37125D01*
X57480Y-37125D02*
X57480Y-37401D01*
X57480Y-37401D02*
X57480Y-37677D01*
X57480Y-37677D02*
X57480Y-41555D01*
X57480Y-41555D02*
X56535Y-42500D01*
X51811Y-42500D02*
X51811Y-43476D01*
X51811Y-43476D02*
X50511Y-44775D01*
X69409Y-47421D02*
X61948Y-47421D01*
X61417Y-45078D02*
X62720Y-45078D01*
X61102Y-45393D02*
X61417Y-45078D01*
X61102Y-46574D02*
X61102Y-45393D01*
X61948Y-47421D02*
X61102Y-46574D01*
X60078Y-42460D02*
X60078Y-43720D01*
X60078Y-43720D02*
X59720Y-44078D01*
X53385Y-42500D02*
X53385Y-44106D01*
X53385Y-44106D02*
X54055Y-44775D01*
X64657Y-44578D02*
X63885Y-44578D01*
X63566Y-46078D02*
X62720Y-46078D01*
X63582Y-46062D02*
X63566Y-46078D01*
X63582Y-44881D02*
X63582Y-46062D01*
X63885Y-44578D02*
X63582Y-44881D01*
X72992Y-31862D02*
X71996Y-31862D01*
X71259Y-32598D02*
X71259Y-34271D01*
X71996Y-31862D02*
X71259Y-32598D01*
X57598Y-45775D02*
X58751Y-45775D01*
X59448Y-45078D02*
X59720Y-45078D01*
X58751Y-45775D02*
X59448Y-45078D01*
X57598Y-45775D02*
X57598Y-46496D01*
X56429Y-47665D02*
X44657Y-47665D01*
X57598Y-46496D02*
X56429Y-47665D01*
X58543Y-42460D02*
X58543Y-43830D01*
X58543Y-43830D02*
X57598Y-44775D01*
G54D22*
X71259Y-41031D02*
X71464Y-41031D01*
X73779Y-43346D02*
X74645Y-43346D01*
X71464Y-41031D02*
X73779Y-43346D01*
X66673Y-40000D02*
X67755Y-40000D01*
X68787Y-41031D02*
X71259Y-41031D01*
X67755Y-40000D02*
X68787Y-41031D01*
G54D23*
X50236Y-42500D02*
X48838Y-42500D01*
X44657Y-45421D02*
X44657Y-46665D01*
X45275Y-44803D02*
X44657Y-45421D01*
X46535Y-44803D02*
X45275Y-44803D01*
X48838Y-42500D02*
X46535Y-44803D01*
X62960Y-41732D02*
X64173Y-41732D01*
X64748Y-45669D02*
X64657Y-45578D01*
X66732Y-45669D02*
X64748Y-45669D01*
X67125Y-45275D02*
X66732Y-45669D01*
X67125Y-43307D02*
X67125Y-45275D01*
X66535Y-42716D02*
X67125Y-43307D01*
X65157Y-42716D02*
X66535Y-42716D01*
X64173Y-41732D02*
X65157Y-42716D01*
X62960Y-41732D02*
X62960Y-40562D01*
X62960Y-40562D02*
X64311Y-39212D01*
G54D10*
G36*
X78612Y-49084D02*
X76988Y-49084D01*
X77410Y-48910D01*
X77885Y-48436D01*
X78142Y-47817D01*
X78142Y-47146D01*
X77886Y-46526D01*
X77412Y-46051D01*
X76793Y-45794D01*
X76122Y-45794D01*
X75502Y-46050D01*
X75028Y-46524D01*
X74771Y-47143D01*
X74770Y-47814D01*
X75026Y-48434D01*
X75500Y-48908D01*
X75924Y-49084D01*
X72054Y-49084D01*
X72054Y-44885D01*
X71937Y-44592D01*
X71924Y-44572D01*
X71757Y-44561D01*
X71729Y-44589D01*
X71729Y-44533D01*
X71718Y-44366D01*
X71429Y-44241D01*
X71114Y-44237D01*
X70821Y-44353D01*
X70801Y-44366D01*
X70789Y-44533D01*
X71259Y-45003D01*
X71729Y-44533D01*
X71729Y-44589D01*
X71287Y-45031D01*
X71757Y-45501D01*
X71924Y-45490D01*
X72049Y-45200D01*
X72054Y-44885D01*
X72054Y-49084D01*
X71729Y-49084D01*
X71729Y-45529D01*
X71259Y-45059D01*
X71232Y-45087D01*
X71232Y-45031D01*
X70762Y-44561D01*
X70595Y-44572D01*
X70470Y-44862D01*
X70465Y-45177D01*
X70581Y-45470D01*
X70595Y-45490D01*
X70762Y-45501D01*
X71232Y-45031D01*
X71232Y-45087D01*
X70789Y-45529D01*
X70801Y-45696D01*
X71090Y-45821D01*
X71405Y-45825D01*
X71698Y-45709D01*
X71718Y-45696D01*
X71729Y-45529D01*
X71729Y-49084D01*
X61712Y-49084D01*
X61712Y-48063D01*
X61948Y-48110D01*
X69003Y-48110D01*
X69251Y-48213D01*
X69566Y-48213D01*
X69857Y-48093D01*
X70080Y-47870D01*
X70201Y-47579D01*
X70201Y-47264D01*
X70081Y-46973D01*
X69858Y-46750D01*
X69567Y-46629D01*
X69252Y-46628D01*
X69002Y-46732D01*
X63745Y-46732D01*
X63830Y-46715D01*
X64054Y-46565D01*
X64069Y-46550D01*
X64069Y-46550D01*
X64069Y-46550D01*
X64219Y-46326D01*
X64237Y-46234D01*
X64504Y-46345D01*
X64685Y-46345D01*
X64748Y-46358D01*
X66732Y-46358D01*
X66995Y-46305D01*
X67219Y-46156D01*
X67613Y-45762D01*
X67613Y-45762D01*
X67613Y-45762D01*
X67762Y-45539D01*
X67814Y-45275D01*
X67814Y-43358D01*
X68051Y-43405D01*
X68051Y-43405D01*
X68051Y-43405D01*
X69409Y-43405D01*
X69786Y-43330D01*
X70105Y-43117D01*
X70318Y-42797D01*
X70393Y-42421D01*
X70318Y-42044D01*
X70299Y-42015D01*
X71056Y-42015D01*
X73083Y-44042D01*
X73083Y-44042D01*
X73402Y-44255D01*
X73779Y-44330D01*
X73779Y-44330D01*
X73779Y-44330D01*
X74645Y-44330D01*
X75022Y-44255D01*
X75341Y-44042D01*
X75554Y-43723D01*
X75629Y-43346D01*
X75554Y-42969D01*
X75435Y-42790D01*
X75435Y-41232D01*
X75319Y-40941D01*
X75306Y-40922D01*
X75140Y-40911D01*
X75112Y-40939D01*
X75112Y-40883D01*
X75101Y-40717D01*
X74813Y-40592D01*
X74500Y-40588D01*
X74209Y-40703D01*
X74189Y-40717D01*
X74179Y-40883D01*
X74645Y-41350D01*
X75112Y-40883D01*
X75112Y-40939D01*
X74673Y-41377D01*
X75140Y-41844D01*
X75306Y-41833D01*
X75430Y-41546D01*
X75435Y-41232D01*
X75435Y-42790D01*
X75341Y-42650D01*
X75112Y-42497D01*
X75112Y-41872D01*
X74645Y-41405D01*
X74617Y-41433D01*
X74617Y-41377D01*
X74151Y-40911D01*
X73984Y-40922D01*
X73860Y-41209D01*
X73856Y-41522D01*
X73971Y-41814D01*
X73984Y-41833D01*
X74151Y-41844D01*
X74617Y-41377D01*
X74617Y-41433D01*
X74179Y-41872D01*
X74189Y-42038D01*
X74477Y-42162D01*
X74790Y-42167D01*
X75081Y-42051D01*
X75101Y-42038D01*
X75112Y-41872D01*
X75112Y-42497D01*
X75022Y-42437D01*
X74645Y-42362D01*
X74187Y-42362D01*
X72160Y-40335D01*
X72041Y-40255D01*
X74192Y-40255D01*
X74569Y-40180D01*
X74569Y-40180D01*
X74888Y-39967D01*
X75341Y-39514D01*
X75554Y-39195D01*
X75629Y-38818D01*
X75554Y-38442D01*
X75435Y-38263D01*
X75435Y-36705D01*
X75319Y-36414D01*
X75306Y-36394D01*
X75140Y-36383D01*
X75112Y-36411D01*
X75112Y-36355D01*
X75101Y-36189D01*
X74813Y-36065D01*
X74500Y-36060D01*
X74209Y-36176D01*
X74189Y-36189D01*
X74179Y-36355D01*
X74645Y-36822D01*
X75112Y-36355D01*
X75112Y-36411D01*
X74673Y-36850D01*
X75140Y-37316D01*
X75306Y-37306D01*
X75430Y-37018D01*
X75435Y-36705D01*
X75435Y-38263D01*
X75341Y-38122D01*
X75112Y-37969D01*
X75112Y-37344D01*
X74645Y-36878D01*
X74617Y-36906D01*
X74617Y-36850D01*
X74151Y-36383D01*
X73984Y-36394D01*
X73860Y-36682D01*
X73856Y-36995D01*
X73971Y-37286D01*
X73984Y-37306D01*
X74151Y-37316D01*
X74617Y-36850D01*
X74617Y-36906D01*
X74179Y-37344D01*
X74189Y-37511D01*
X74477Y-37635D01*
X74790Y-37640D01*
X75081Y-37524D01*
X75101Y-37511D01*
X75112Y-37344D01*
X75112Y-37969D01*
X75022Y-37909D01*
X74645Y-37834D01*
X74269Y-37909D01*
X73949Y-38122D01*
X73816Y-38255D01*
X73816Y-32711D01*
X73696Y-32407D01*
X73681Y-32385D01*
X73635Y-32381D01*
X73688Y-32328D01*
X73814Y-32026D01*
X73814Y-31699D01*
X73689Y-31397D01*
X73458Y-31165D01*
X73156Y-31040D01*
X72829Y-31039D01*
X72527Y-31164D01*
X72518Y-31173D01*
X71996Y-31173D01*
X71732Y-31225D01*
X71508Y-31375D01*
X70772Y-32111D01*
X70623Y-32334D01*
X70570Y-32598D01*
X70570Y-33865D01*
X70467Y-34113D01*
X70467Y-34428D01*
X70587Y-34719D01*
X70810Y-34942D01*
X71101Y-35063D01*
X71416Y-35063D01*
X71707Y-34943D01*
X71930Y-34720D01*
X72051Y-34429D01*
X72052Y-34114D01*
X71948Y-33864D01*
X71948Y-32883D01*
X72192Y-32640D01*
X72172Y-32685D01*
X72167Y-33012D01*
X72287Y-33316D01*
X72302Y-33338D01*
X72472Y-33353D01*
X72964Y-32862D01*
X72958Y-32856D01*
X72986Y-32828D01*
X72992Y-32834D01*
X72997Y-32828D01*
X73025Y-32856D01*
X73019Y-32862D01*
X73511Y-33353D01*
X73681Y-33338D01*
X73811Y-33038D01*
X73816Y-32711D01*
X73816Y-38255D01*
X73785Y-38287D01*
X73483Y-38287D01*
X73483Y-33381D01*
X72992Y-32890D01*
X72500Y-33381D01*
X72515Y-33551D01*
X72815Y-33681D01*
X73142Y-33686D01*
X73446Y-33566D01*
X73468Y-33551D01*
X73483Y-33381D01*
X73483Y-38287D01*
X71497Y-38287D01*
X71200Y-38228D01*
X69882Y-38228D01*
X69882Y-34241D01*
X69753Y-33930D01*
X69515Y-33692D01*
X69204Y-33563D01*
X68867Y-33562D01*
X68556Y-33691D01*
X68318Y-33929D01*
X68189Y-34240D01*
X68188Y-34577D01*
X68317Y-34888D01*
X68555Y-35126D01*
X68866Y-35255D01*
X69203Y-35256D01*
X69514Y-35127D01*
X69752Y-34889D01*
X69881Y-34578D01*
X69882Y-34241D01*
X69882Y-38228D01*
X69443Y-38228D01*
X68540Y-37325D01*
X68540Y-37325D01*
X67910Y-36695D01*
X67034Y-35819D01*
X66788Y-35573D01*
X66286Y-35071D01*
X66286Y-35071D01*
X66129Y-34914D01*
X66001Y-34786D01*
X65165Y-33950D01*
X65006Y-33713D01*
X64687Y-33500D01*
X64311Y-33425D01*
X63934Y-33500D01*
X63615Y-33713D01*
X63401Y-34032D01*
X63326Y-34409D01*
X63326Y-34488D01*
X63401Y-34864D01*
X63615Y-35184D01*
X64448Y-36017D01*
X64448Y-38366D01*
X64143Y-38365D01*
X63832Y-38494D01*
X63593Y-38732D01*
X63464Y-39043D01*
X63464Y-39084D01*
X62473Y-40075D01*
X62324Y-40299D01*
X62271Y-40562D01*
X62271Y-41325D01*
X62168Y-41574D01*
X62168Y-41889D01*
X62288Y-42180D01*
X62511Y-42403D01*
X62802Y-42524D01*
X63117Y-42524D01*
X63367Y-42421D01*
X63887Y-42421D01*
X64670Y-43203D01*
X64670Y-43203D01*
X64893Y-43353D01*
X64893Y-43353D01*
X65105Y-43395D01*
X65157Y-43405D01*
X65157Y-43405D01*
X65157Y-43405D01*
X66250Y-43405D01*
X66437Y-43592D01*
X66437Y-44980D01*
X66412Y-44980D01*
X66424Y-44952D01*
X66424Y-44756D01*
X66424Y-44401D01*
X66424Y-44205D01*
X66349Y-44024D01*
X66210Y-43886D01*
X66029Y-43811D01*
X65800Y-43811D01*
X65677Y-43934D01*
X65677Y-44559D01*
X66301Y-44559D01*
X66424Y-44436D01*
X66424Y-44401D01*
X66424Y-44756D01*
X66424Y-44721D01*
X66301Y-44598D01*
X65677Y-44598D01*
X65677Y-44606D01*
X65637Y-44606D01*
X65637Y-44598D01*
X65629Y-44598D01*
X65629Y-44559D01*
X65637Y-44559D01*
X65637Y-43934D01*
X65514Y-43811D01*
X65285Y-43811D01*
X65104Y-43886D01*
X65070Y-43919D01*
X64810Y-43811D01*
X64505Y-43811D01*
X64316Y-43889D01*
X63885Y-43889D01*
X63622Y-43942D01*
X63487Y-44032D01*
X63487Y-43926D01*
X63371Y-43644D01*
X63155Y-43428D01*
X62873Y-43311D01*
X62568Y-43311D01*
X62286Y-43428D01*
X62070Y-43643D01*
X61953Y-43925D01*
X61953Y-44230D01*
X62018Y-44389D01*
X61712Y-44389D01*
X61712Y-38395D01*
X62888Y-37219D01*
X63038Y-36995D01*
X63090Y-36732D01*
X63090Y-33700D01*
X63090Y-33700D01*
X63090Y-33700D01*
X63081Y-33657D01*
X63038Y-33437D01*
X62888Y-33213D01*
X62888Y-33213D01*
X61712Y-32037D01*
X61712Y-31033D01*
X76020Y-31033D01*
X75502Y-31247D01*
X75028Y-31720D01*
X74771Y-32340D01*
X74770Y-33011D01*
X75026Y-33630D01*
X75500Y-34105D01*
X76119Y-34362D01*
X76790Y-34363D01*
X77410Y-34107D01*
X77885Y-33633D01*
X78142Y-33013D01*
X78142Y-32343D01*
X77886Y-31723D01*
X77412Y-31248D01*
X76894Y-31033D01*
X78612Y-31033D01*
X78612Y-49084D01*
X78612Y-49084D01*
G37*
G54D24*
X78612Y-49084D02*
X76988Y-49084D01*
X77410Y-48910D01*
X77885Y-48436D01*
X78142Y-47817D01*
X78142Y-47146D01*
X77886Y-46526D01*
X77412Y-46051D01*
X76793Y-45794D01*
X76122Y-45794D01*
X75502Y-46050D01*
X75028Y-46524D01*
X74771Y-47143D01*
X74770Y-47814D01*
X75026Y-48434D01*
X75500Y-48908D01*
X75924Y-49084D01*
X72054Y-49084D01*
X72054Y-44885D01*
X71937Y-44592D01*
X71924Y-44572D01*
X71757Y-44561D01*
X71729Y-44589D01*
X71729Y-44533D01*
X71718Y-44366D01*
X71429Y-44241D01*
X71114Y-44237D01*
X70821Y-44353D01*
X70801Y-44366D01*
X70789Y-44533D01*
X71259Y-45003D01*
X71729Y-44533D01*
X71729Y-44589D01*
X71287Y-45031D01*
X71757Y-45501D01*
X71924Y-45490D01*
X72049Y-45200D01*
X72054Y-44885D01*
X72054Y-49084D01*
X71729Y-49084D01*
X71729Y-45529D01*
X71259Y-45059D01*
X71232Y-45087D01*
X71232Y-45031D01*
X70762Y-44561D01*
X70595Y-44572D01*
X70470Y-44862D01*
X70465Y-45177D01*
X70581Y-45470D01*
X70595Y-45490D01*
X70762Y-45501D01*
X71232Y-45031D01*
X71232Y-45087D01*
X70789Y-45529D01*
X70801Y-45696D01*
X71090Y-45821D01*
X71405Y-45825D01*
X71698Y-45709D01*
X71718Y-45696D01*
X71729Y-45529D01*
X71729Y-49084D01*
X61712Y-49084D01*
X61712Y-48063D01*
X61948Y-48110D01*
X69003Y-48110D01*
X69251Y-48213D01*
X69566Y-48213D01*
X69857Y-48093D01*
X70080Y-47870D01*
X70201Y-47579D01*
X70201Y-47264D01*
X70081Y-46973D01*
X69858Y-46750D01*
X69567Y-46629D01*
X69252Y-46628D01*
X69002Y-46732D01*
X63745Y-46732D01*
X63830Y-46715D01*
X64054Y-46565D01*
X64069Y-46550D01*
X64069Y-46550D01*
X64069Y-46550D01*
X64219Y-46326D01*
X64237Y-46234D01*
X64504Y-46345D01*
X64685Y-46345D01*
X64748Y-46358D01*
X66732Y-46358D01*
X66995Y-46305D01*
X67219Y-46156D01*
X67613Y-45762D01*
X67613Y-45762D01*
X67613Y-45762D01*
X67762Y-45539D01*
X67814Y-45275D01*
X67814Y-43358D01*
X68051Y-43405D01*
X68051Y-43405D01*
X68051Y-43405D01*
X69409Y-43405D01*
X69786Y-43330D01*
X70105Y-43117D01*
X70318Y-42797D01*
X70393Y-42421D01*
X70318Y-42044D01*
X70299Y-42015D01*
X71056Y-42015D01*
X73083Y-44042D01*
X73083Y-44042D01*
X73402Y-44255D01*
X73779Y-44330D01*
X73779Y-44330D01*
X73779Y-44330D01*
X74645Y-44330D01*
X75022Y-44255D01*
X75341Y-44042D01*
X75554Y-43723D01*
X75629Y-43346D01*
X75554Y-42969D01*
X75435Y-42790D01*
X75435Y-41232D01*
X75319Y-40941D01*
X75306Y-40922D01*
X75140Y-40911D01*
X75112Y-40939D01*
X75112Y-40883D01*
X75101Y-40717D01*
X74813Y-40592D01*
X74500Y-40588D01*
X74209Y-40703D01*
X74189Y-40717D01*
X74179Y-40883D01*
X74645Y-41350D01*
X75112Y-40883D01*
X75112Y-40939D01*
X74673Y-41377D01*
X75140Y-41844D01*
X75306Y-41833D01*
X75430Y-41546D01*
X75435Y-41232D01*
X75435Y-42790D01*
X75341Y-42650D01*
X75112Y-42497D01*
X75112Y-41872D01*
X74645Y-41405D01*
X74617Y-41433D01*
X74617Y-41377D01*
X74151Y-40911D01*
X73984Y-40922D01*
X73860Y-41209D01*
X73856Y-41522D01*
X73971Y-41814D01*
X73984Y-41833D01*
X74151Y-41844D01*
X74617Y-41377D01*
X74617Y-41433D01*
X74179Y-41872D01*
X74189Y-42038D01*
X74477Y-42162D01*
X74790Y-42167D01*
X75081Y-42051D01*
X75101Y-42038D01*
X75112Y-41872D01*
X75112Y-42497D01*
X75022Y-42437D01*
X74645Y-42362D01*
X74187Y-42362D01*
X72160Y-40335D01*
X72041Y-40255D01*
X74192Y-40255D01*
X74569Y-40180D01*
X74569Y-40180D01*
X74888Y-39967D01*
X75341Y-39514D01*
X75554Y-39195D01*
X75629Y-38818D01*
X75554Y-38442D01*
X75435Y-38263D01*
X75435Y-36705D01*
X75319Y-36414D01*
X75306Y-36394D01*
X75140Y-36383D01*
X75112Y-36411D01*
X75112Y-36355D01*
X75101Y-36189D01*
X74813Y-36065D01*
X74500Y-36060D01*
X74209Y-36176D01*
X74189Y-36189D01*
X74179Y-36355D01*
X74645Y-36822D01*
X75112Y-36355D01*
X75112Y-36411D01*
X74673Y-36850D01*
X75140Y-37316D01*
X75306Y-37306D01*
X75430Y-37018D01*
X75435Y-36705D01*
X75435Y-38263D01*
X75341Y-38122D01*
X75112Y-37969D01*
X75112Y-37344D01*
X74645Y-36878D01*
X74617Y-36906D01*
X74617Y-36850D01*
X74151Y-36383D01*
X73984Y-36394D01*
X73860Y-36682D01*
X73856Y-36995D01*
X73971Y-37286D01*
X73984Y-37306D01*
X74151Y-37316D01*
X74617Y-36850D01*
X74617Y-36906D01*
X74179Y-37344D01*
X74189Y-37511D01*
X74477Y-37635D01*
X74790Y-37640D01*
X75081Y-37524D01*
X75101Y-37511D01*
X75112Y-37344D01*
X75112Y-37969D01*
X75022Y-37909D01*
X74645Y-37834D01*
X74269Y-37909D01*
X73949Y-38122D01*
X73816Y-38255D01*
X73816Y-32711D01*
X73696Y-32407D01*
X73681Y-32385D01*
X73635Y-32381D01*
X73688Y-32328D01*
X73814Y-32026D01*
X73814Y-31699D01*
X73689Y-31397D01*
X73458Y-31165D01*
X73156Y-31040D01*
X72829Y-31039D01*
X72527Y-31164D01*
X72518Y-31173D01*
X71996Y-31173D01*
X71732Y-31225D01*
X71508Y-31375D01*
X70772Y-32111D01*
X70623Y-32334D01*
X70570Y-32598D01*
X70570Y-33865D01*
X70467Y-34113D01*
X70467Y-34428D01*
X70587Y-34719D01*
X70810Y-34942D01*
X71101Y-35063D01*
X71416Y-35063D01*
X71707Y-34943D01*
X71930Y-34720D01*
X72051Y-34429D01*
X72052Y-34114D01*
X71948Y-33864D01*
X71948Y-32883D01*
X72192Y-32640D01*
X72172Y-32685D01*
X72167Y-33012D01*
X72287Y-33316D01*
X72302Y-33338D01*
X72472Y-33353D01*
X72964Y-32862D01*
X72958Y-32856D01*
X72986Y-32828D01*
X72992Y-32834D01*
X72997Y-32828D01*
X73025Y-32856D01*
X73019Y-32862D01*
X73511Y-33353D01*
X73681Y-33338D01*
X73811Y-33038D01*
X73816Y-32711D01*
X73816Y-38255D01*
X73785Y-38287D01*
X73483Y-38287D01*
X73483Y-33381D01*
X72992Y-32890D01*
X72500Y-33381D01*
X72515Y-33551D01*
X72815Y-33681D01*
X73142Y-33686D01*
X73446Y-33566D01*
X73468Y-33551D01*
X73483Y-33381D01*
X73483Y-38287D01*
X71497Y-38287D01*
X71200Y-38228D01*
X69882Y-38228D01*
X69882Y-34241D01*
X69753Y-33930D01*
X69515Y-33692D01*
X69204Y-33563D01*
X68867Y-33562D01*
X68556Y-33691D01*
X68318Y-33929D01*
X68189Y-34240D01*
X68188Y-34577D01*
X68317Y-34888D01*
X68555Y-35126D01*
X68866Y-35255D01*
X69203Y-35256D01*
X69514Y-35127D01*
X69752Y-34889D01*
X69881Y-34578D01*
X69882Y-34241D01*
X69882Y-38228D01*
X69443Y-38228D01*
X68540Y-37325D01*
X68540Y-37325D01*
X67910Y-36695D01*
X67034Y-35819D01*
X66788Y-35573D01*
X66286Y-35071D01*
X66286Y-35071D01*
X66129Y-34914D01*
X66001Y-34786D01*
X65165Y-33950D01*
X65006Y-33713D01*
X64687Y-33500D01*
X64311Y-33425D01*
X63934Y-33500D01*
X63615Y-33713D01*
X63401Y-34032D01*
X63326Y-34409D01*
X63326Y-34488D01*
X63401Y-34864D01*
X63615Y-35184D01*
X64448Y-36017D01*
X64448Y-38366D01*
X64143Y-38365D01*
X63832Y-38494D01*
X63593Y-38732D01*
X63464Y-39043D01*
X63464Y-39084D01*
X62473Y-40075D01*
X62324Y-40299D01*
X62271Y-40562D01*
X62271Y-41325D01*
X62168Y-41574D01*
X62168Y-41889D01*
X62288Y-42180D01*
X62511Y-42403D01*
X62802Y-42524D01*
X63117Y-42524D01*
X63367Y-42421D01*
X63887Y-42421D01*
X64670Y-43203D01*
X64670Y-43203D01*
X64893Y-43353D01*
X64893Y-43353D01*
X65105Y-43395D01*
X65157Y-43405D01*
X65157Y-43405D01*
X65157Y-43405D01*
X66250Y-43405D01*
X66437Y-43592D01*
X66437Y-44980D01*
X66412Y-44980D01*
X66424Y-44952D01*
X66424Y-44756D01*
X66424Y-44401D01*
X66424Y-44205D01*
X66349Y-44024D01*
X66210Y-43886D01*
X66029Y-43811D01*
X65800Y-43811D01*
X65677Y-43934D01*
X65677Y-44559D01*
X66301Y-44559D01*
X66424Y-44436D01*
X66424Y-44401D01*
X66424Y-44756D01*
X66424Y-44721D01*
X66301Y-44598D01*
X65677Y-44598D01*
X65677Y-44606D01*
X65637Y-44606D01*
X65637Y-44598D01*
X65629Y-44598D01*
X65629Y-44559D01*
X65637Y-44559D01*
X65637Y-43934D01*
X65514Y-43811D01*
X65285Y-43811D01*
X65104Y-43886D01*
X65070Y-43919D01*
X64810Y-43811D01*
X64505Y-43811D01*
X64316Y-43889D01*
X63885Y-43889D01*
X63622Y-43942D01*
X63487Y-44032D01*
X63487Y-43926D01*
X63371Y-43644D01*
X63155Y-43428D01*
X62873Y-43311D01*
X62568Y-43311D01*
X62286Y-43428D01*
X62070Y-43643D01*
X61953Y-43925D01*
X61953Y-44230D01*
X62018Y-44389D01*
X61712Y-44389D01*
X61712Y-38395D01*
X62888Y-37219D01*
X63038Y-36995D01*
X63090Y-36732D01*
X63090Y-33700D01*
X63090Y-33700D01*
X63090Y-33700D01*
X63081Y-33657D01*
X63038Y-33437D01*
X62888Y-33213D01*
X62888Y-33213D01*
X61712Y-32037D01*
X61712Y-31033D01*
X76020Y-31033D01*
X75502Y-31247D01*
X75028Y-31720D01*
X74771Y-32340D01*
X74770Y-33011D01*
X75026Y-33630D01*
X75500Y-34105D01*
X76119Y-34362D01*
X76790Y-34363D01*
X77410Y-34107D01*
X77885Y-33633D01*
X78142Y-33013D01*
X78142Y-32343D01*
X77886Y-31723D01*
X77412Y-31248D01*
X76894Y-31033D01*
X78612Y-31033D01*
X78612Y-49084D01*
M02*
