M48
;DRILL file {Pcbnew (2013-07-07 BZR 4022)-stable} date 8/5/2014 9:25:07 PM
;FORMAT={-:-/ absolute / metric / decimal}
FMAT,2
METRIC,TZ
T1C0.813
T2C0.889
T3C0.899
T4C1.000
T5C1.016
T6C1.300
%
G90
G05
M71
T1
X6.89Y-17.84
X6.89Y-12.76
X14.51Y-17.84
X14.51Y-12.76
X20.93Y7.93
X20.93Y10.47
X21.3Y-25.45
X21.3Y-12.75
X23.47Y7.93
X35.1Y-15.35
X35.1Y-2.65
X35.9Y3.13
X35.9Y5.67
X39.1Y-15.35
X39.1Y-2.65
X43.1Y-15.35
X43.1Y-2.65
X44.8Y3.13
X44.8Y5.67
X47.1Y-15.35
X47.1Y-2.65
X51.1Y-15.35
X51.1Y-2.65
X53.8Y3.13
X53.8Y5.67
X56.2Y-15.45
X56.2Y-2.75
X59.19Y1.36
X59.19Y3.9
X59.19Y6.44
X60.1Y-15.45
X60.1Y-2.75
X66.81Y1.36
X66.81Y3.9
X66.81Y6.44
X71.73Y2.63
X71.73Y5.17
X74.27Y2.63
X83.8Y-2.85
X83.8Y9.85
X88.5Y-23.55
X88.5Y-10.85
X92.9Y-29.67
X92.9Y-27.13
T2
X67.42Y-4.6
X77.58Y-4.6
X88.5Y-6.38
X88.5Y3.78
T3
X0.Y-0.045
X0.Y2.495
X0.Y5.035
X0.Y7.575
X2.54Y1.225
X2.54Y3.765
X2.54Y6.305
X2.54Y8.845
T4
X-5.1Y-17.8
X-5.1Y-12.8
X97.1Y-17.
X97.1Y-12.
X97.1Y-5.5
X97.1Y-0.5
T5
X29.86Y-22.42
X29.86Y-19.88
X32.4Y-22.42
X32.4Y-19.88
X34.94Y-22.42
X34.94Y-19.88
X37.48Y-22.42
X37.48Y-19.88
X40.02Y-22.42
X40.02Y-19.88
X42.56Y-22.42
X42.56Y-19.88
X45.1Y-22.42
X45.1Y-19.88
X47.64Y-22.42
X47.64Y-19.88
X50.18Y-22.42
X50.18Y-19.88
X52.72Y-22.42
X52.72Y-19.88
X55.26Y-22.42
X55.26Y-19.88
X57.8Y-22.42
X57.8Y-19.88
X60.34Y-22.42
X60.34Y-19.88
T6
X70.85Y-23.2
X70.85Y-11.
X76.85Y-9.
X82.85Y-23.2
X82.85Y-11.
T0
M30
