G04 (created by PCBNEW (2013-07-07 BZR 4022)-stable) date 7/9/2014 6:54:36 PM*
%MOIN*%
G04 Gerber Fmt 3.4, Leading zero omitted, Abs format*
%FSLAX34Y34*%
G01*
G70*
G90*
G04 APERTURE LIST*
%ADD10C,0.00393701*%
%ADD11C,0.16*%
%ADD12R,0.055X0.055*%
%ADD13C,0.055*%
%ADD14C,0.1437*%
%ADD15R,0.0591X0.0591*%
%ADD16C,0.0591*%
%ADD17C,0.0708661*%
%ADD18C,0.06*%
%ADD19R,0.06X0.06*%
%ADD20C,0.066*%
%ADD21C,0.0590551*%
%ADD22C,0.0984252*%
%ADD23C,0.0393701*%
%ADD24C,0.019685*%
G04 APERTURE END LIST*
G54D10*
G54D11*
X44960Y-16968D03*
X8740Y-16968D03*
X44960Y-2165D03*
G54D12*
X14161Y-16153D03*
G54D13*
X13161Y-16153D03*
X13161Y-17153D03*
G54D12*
X34161Y-14066D03*
G54D13*
X33161Y-14066D03*
X33161Y-15066D03*
X7633Y-8007D03*
X7633Y-6007D03*
X10633Y-8007D03*
X10633Y-6007D03*
G54D14*
X2421Y-17101D03*
X2421Y-12428D03*
G54D15*
X4921Y-13013D03*
G54D16*
X5921Y-13513D03*
X4921Y-14013D03*
X5921Y-14513D03*
X4921Y-15013D03*
X5921Y-15513D03*
X4921Y-16013D03*
X5921Y-16513D03*
G54D17*
X35177Y-9488D03*
X32814Y-8700D03*
X37539Y-8700D03*
X32814Y-3897D03*
X37539Y-3897D03*
G54D18*
X23464Y-11988D03*
X23464Y-6988D03*
X39763Y-8759D03*
X39763Y-3759D03*
X37913Y-11909D03*
X37913Y-16909D03*
X25039Y-6988D03*
X25039Y-11988D03*
X13307Y-8011D03*
X13307Y-3011D03*
X20314Y-6988D03*
X20314Y-11988D03*
X21889Y-6988D03*
X21889Y-11988D03*
X18740Y-11988D03*
X18740Y-6988D03*
G54D19*
X28677Y-4204D03*
G54D18*
X28677Y-5204D03*
X27677Y-4204D03*
X27677Y-5204D03*
X26677Y-4204D03*
X26677Y-5204D03*
X25677Y-4204D03*
X25677Y-5204D03*
X24677Y-4204D03*
X24677Y-5204D03*
X23677Y-4204D03*
X23677Y-5204D03*
X22677Y-4204D03*
X22677Y-5204D03*
X21677Y-4204D03*
X21677Y-5204D03*
X20677Y-4204D03*
X20677Y-5204D03*
X19677Y-4204D03*
X19677Y-5204D03*
X18677Y-4204D03*
X18677Y-5204D03*
X17677Y-4204D03*
X17677Y-5204D03*
X16677Y-4204D03*
X16677Y-5204D03*
G54D20*
X22559Y-14263D03*
X22559Y-15263D03*
G54D19*
X35464Y-11220D03*
G54D18*
X31464Y-11220D03*
G54D19*
X39763Y-10519D03*
G54D18*
X39763Y-14519D03*
G54D12*
X28224Y-13566D03*
G54D13*
X28224Y-14566D03*
X28224Y-15566D03*
X31224Y-15566D03*
X31224Y-14566D03*
X31224Y-13566D03*
G54D11*
X8740Y-2204D03*
G54D21*
X2913Y-7992D03*
X2913Y-6023D03*
X43149Y-6338D03*
X43149Y-8307D03*
X43149Y-10866D03*
X43149Y-12834D03*
G54D18*
X27047Y-11948D03*
X27047Y-6948D03*
X28582Y-6948D03*
X28582Y-11948D03*
G54D20*
X41496Y-1350D03*
X41496Y-2350D03*
X26102Y-14263D03*
X26102Y-15263D03*
X19055Y-14263D03*
X19055Y-15263D03*
G54D22*
X35464Y-11220D02*
X34409Y-11220D01*
X33937Y-5098D02*
X33809Y-4970D01*
X33937Y-10748D02*
X33937Y-5098D01*
X34409Y-11220D02*
X33937Y-10748D01*
X35464Y-11220D02*
X35866Y-11220D01*
X35866Y-11220D02*
X36555Y-11909D01*
X36555Y-11909D02*
X37913Y-11909D01*
X39763Y-8759D02*
X42696Y-8759D01*
X42696Y-8759D02*
X43149Y-8307D01*
X37539Y-8700D02*
X39704Y-8700D01*
X39704Y-8700D02*
X39763Y-8759D01*
X32814Y-3897D02*
X32814Y-3976D01*
X32814Y-3976D02*
X33809Y-4970D01*
X33809Y-4970D02*
X34094Y-5255D01*
X34094Y-5255D02*
X34596Y-5757D01*
X34596Y-5757D02*
X34842Y-6003D01*
X34842Y-6003D02*
X35718Y-6879D01*
X35718Y-6879D02*
X36348Y-7509D01*
X36348Y-7509D02*
X37539Y-8700D01*
G54D23*
X28677Y-4204D02*
X28677Y-2850D01*
X14429Y-1889D02*
X13307Y-3011D01*
X27716Y-1889D02*
X14429Y-1889D01*
X28677Y-2850D02*
X27716Y-1889D01*
X27047Y-6948D02*
X28582Y-6948D01*
X28677Y-5204D02*
X28677Y-6854D01*
X28677Y-6854D02*
X28582Y-6948D01*
X28677Y-5204D02*
X29834Y-5204D01*
X5921Y-17818D02*
X5921Y-16513D01*
X5275Y-18464D02*
X5921Y-17818D01*
X1771Y-18464D02*
X5275Y-18464D01*
X944Y-17637D02*
X1771Y-18464D01*
X944Y-8543D02*
X944Y-17637D01*
X2480Y-7007D02*
X944Y-8543D01*
X11220Y-7007D02*
X2480Y-7007D01*
X12283Y-5944D02*
X11220Y-7007D01*
X12283Y-2677D02*
X12283Y-5944D01*
X13740Y-1220D02*
X12283Y-2677D01*
X27992Y-1220D02*
X13740Y-1220D01*
X30275Y-3503D02*
X27992Y-1220D01*
X30275Y-4763D02*
X30275Y-3503D01*
X29834Y-5204D02*
X30275Y-4763D01*
X22677Y-4204D02*
X22677Y-3779D01*
X4005Y-16013D02*
X4921Y-16013D01*
X3818Y-15826D02*
X4005Y-16013D01*
X3818Y-12480D02*
X3818Y-15826D01*
X5551Y-10748D02*
X3818Y-12480D01*
X12362Y-10748D02*
X5551Y-10748D01*
X15708Y-7401D02*
X12362Y-10748D01*
X15708Y-3858D02*
X15708Y-7401D01*
X16299Y-3267D02*
X15708Y-3858D01*
X22165Y-3267D02*
X16299Y-3267D01*
X22677Y-3779D02*
X22165Y-3267D01*
X13307Y-8011D02*
X13799Y-8011D01*
X23677Y-3283D02*
X23677Y-4204D01*
X22952Y-2559D02*
X23677Y-3283D01*
X15472Y-2559D02*
X22952Y-2559D01*
X14881Y-3149D02*
X15472Y-2559D01*
X14881Y-6929D02*
X14881Y-3149D01*
X13799Y-8011D02*
X14881Y-6929D01*
X10633Y-8007D02*
X10637Y-8011D01*
X10637Y-8011D02*
X13307Y-8011D01*
X7633Y-8007D02*
X10633Y-8007D01*
X2874Y-7992D02*
X7618Y-7992D01*
X7618Y-7992D02*
X7633Y-8007D01*
X21889Y-6988D02*
X21358Y-6988D01*
X7112Y-12322D02*
X5921Y-13513D01*
X13110Y-12322D02*
X7112Y-12322D01*
X16806Y-8626D02*
X13110Y-12322D01*
X19720Y-8626D02*
X16806Y-8626D01*
X21358Y-6988D02*
X19720Y-8626D01*
X21677Y-5204D02*
X21677Y-6775D01*
X21677Y-6775D02*
X21889Y-6988D01*
X20314Y-6988D02*
X19350Y-7952D01*
X6399Y-11535D02*
X4921Y-13013D01*
X12874Y-11535D02*
X6399Y-11535D01*
X16456Y-7952D02*
X12874Y-11535D01*
X19350Y-7952D02*
X16456Y-7952D01*
X20677Y-5204D02*
X20677Y-6625D01*
X20677Y-6625D02*
X20314Y-6988D01*
X18677Y-5204D02*
X18677Y-6925D01*
X18677Y-6925D02*
X18740Y-6988D01*
X5921Y-15513D02*
X6179Y-15513D01*
X22539Y-11062D02*
X23464Y-11988D01*
X17362Y-11062D02*
X22539Y-11062D01*
X14763Y-13661D02*
X17362Y-11062D01*
X8031Y-13661D02*
X14763Y-13661D01*
X6179Y-15513D02*
X8031Y-13661D01*
X23464Y-6988D02*
X24192Y-6988D01*
X24192Y-6988D02*
X24677Y-6503D01*
X24677Y-5204D02*
X24677Y-6503D01*
X24677Y-6503D02*
X24677Y-6625D01*
X24677Y-6625D02*
X25039Y-6988D01*
X22559Y-15263D02*
X22925Y-15263D01*
X25039Y-13149D02*
X25039Y-11988D01*
X22925Y-15263D02*
X25039Y-13149D01*
X14161Y-16153D02*
X18125Y-16153D01*
X18125Y-16153D02*
X19015Y-15263D01*
X19015Y-15263D02*
X22559Y-15263D01*
X10633Y-6007D02*
X11614Y-5027D01*
X26456Y-8031D02*
X25984Y-7559D01*
X29094Y-8031D02*
X26456Y-8031D01*
X30905Y-6220D02*
X29094Y-8031D01*
X30905Y-3188D02*
X30905Y-6220D01*
X28267Y-551D02*
X30905Y-3188D01*
X13425Y-551D02*
X28267Y-551D01*
X11614Y-2362D02*
X13425Y-551D01*
X11614Y-5027D02*
X11614Y-2362D01*
X25984Y-7559D02*
X25984Y-7244D01*
X7633Y-6007D02*
X10633Y-6007D01*
X2874Y-6023D02*
X7618Y-6023D01*
X7618Y-6023D02*
X7633Y-6007D01*
X25984Y-7244D02*
X25984Y-7559D01*
X25984Y-7165D02*
X25984Y-7244D01*
X25984Y-7559D02*
X25984Y-7677D01*
X7442Y-12992D02*
X5921Y-14513D01*
X13385Y-12992D02*
X7442Y-12992D01*
X17125Y-9251D02*
X13385Y-12992D01*
X20078Y-9251D02*
X17125Y-9251D01*
X20984Y-8346D02*
X20078Y-9251D01*
X25314Y-8346D02*
X20984Y-8346D01*
X25984Y-7677D02*
X25314Y-8346D01*
X26677Y-5204D02*
X26677Y-5921D01*
X26677Y-5921D02*
X25984Y-6614D01*
X25984Y-6614D02*
X25984Y-6889D01*
X25984Y-6889D02*
X25984Y-7165D01*
X25984Y-7165D02*
X25984Y-11043D01*
X25984Y-11043D02*
X25039Y-11988D01*
X20314Y-11988D02*
X20314Y-12964D01*
X20314Y-12964D02*
X19015Y-14263D01*
X37913Y-16909D02*
X30452Y-16909D01*
X29921Y-14566D02*
X31224Y-14566D01*
X29606Y-14881D02*
X29921Y-14566D01*
X29606Y-16062D02*
X29606Y-14881D01*
X30452Y-16909D02*
X29606Y-16062D01*
X28582Y-11948D02*
X28582Y-13208D01*
X28582Y-13208D02*
X28224Y-13566D01*
X21889Y-11988D02*
X21889Y-13594D01*
X21889Y-13594D02*
X22559Y-14263D01*
X33161Y-14066D02*
X32389Y-14066D01*
X32070Y-15566D02*
X31224Y-15566D01*
X32086Y-15551D02*
X32070Y-15566D01*
X32086Y-14370D02*
X32086Y-15551D01*
X32389Y-14066D02*
X32086Y-14370D01*
X41496Y-1350D02*
X40500Y-1350D01*
X39763Y-2086D02*
X39763Y-3759D01*
X40500Y-1350D02*
X39763Y-2086D01*
X26102Y-15263D02*
X27255Y-15263D01*
X27952Y-14566D02*
X28224Y-14566D01*
X27255Y-15263D02*
X27952Y-14566D01*
X26102Y-15263D02*
X26102Y-15984D01*
X24933Y-17153D02*
X13161Y-17153D01*
X26102Y-15984D02*
X24933Y-17153D01*
X27047Y-11948D02*
X27047Y-13318D01*
X27047Y-13318D02*
X26102Y-14263D01*
G54D22*
X39763Y-10519D02*
X39968Y-10519D01*
X42283Y-12834D02*
X43149Y-12834D01*
X39968Y-10519D02*
X42283Y-12834D01*
X35177Y-9488D02*
X36259Y-9488D01*
X37291Y-10519D02*
X39763Y-10519D01*
X36259Y-9488D02*
X37291Y-10519D01*
G54D23*
X18740Y-11988D02*
X17342Y-11988D01*
X13161Y-14909D02*
X13161Y-16153D01*
X13779Y-14291D02*
X13161Y-14909D01*
X15039Y-14291D02*
X13779Y-14291D01*
X17342Y-11988D02*
X15039Y-14291D01*
X31464Y-11220D02*
X32677Y-11220D01*
X33251Y-15157D02*
X33161Y-15066D01*
X35236Y-15157D02*
X33251Y-15157D01*
X35629Y-14763D02*
X35236Y-15157D01*
X35629Y-12795D02*
X35629Y-14763D01*
X35039Y-12204D02*
X35629Y-12795D01*
X33661Y-12204D02*
X35039Y-12204D01*
X32677Y-11220D02*
X33661Y-12204D01*
X31464Y-11220D02*
X31464Y-10051D01*
X31464Y-10051D02*
X32814Y-8700D01*
G54D10*
G36*
X47116Y-18572D02*
X45492Y-18572D01*
X45914Y-18398D01*
X46388Y-17924D01*
X46646Y-17305D01*
X46646Y-16634D01*
X46390Y-16014D01*
X45916Y-15540D01*
X45297Y-15282D01*
X44626Y-15282D01*
X44006Y-15538D01*
X43532Y-16012D01*
X43275Y-16631D01*
X43274Y-17302D01*
X43530Y-17922D01*
X44004Y-18396D01*
X44428Y-18572D01*
X40558Y-18572D01*
X40558Y-14373D01*
X40441Y-14081D01*
X40428Y-14061D01*
X40261Y-14049D01*
X40233Y-14077D01*
X40233Y-14021D01*
X40222Y-13854D01*
X39933Y-13729D01*
X39618Y-13725D01*
X39325Y-13841D01*
X39305Y-13854D01*
X39293Y-14021D01*
X39763Y-14491D01*
X40233Y-14021D01*
X40233Y-14077D01*
X39791Y-14519D01*
X40261Y-14989D01*
X40428Y-14978D01*
X40553Y-14689D01*
X40558Y-14373D01*
X40558Y-18572D01*
X40233Y-18572D01*
X40233Y-15017D01*
X39763Y-14547D01*
X39735Y-14575D01*
X39735Y-14519D01*
X39265Y-14049D01*
X39099Y-14061D01*
X38974Y-14350D01*
X38969Y-14665D01*
X39085Y-14958D01*
X39099Y-14978D01*
X39265Y-14989D01*
X39735Y-14519D01*
X39735Y-14575D01*
X39293Y-15017D01*
X39305Y-15184D01*
X39594Y-15309D01*
X39909Y-15314D01*
X40202Y-15197D01*
X40222Y-15184D01*
X40233Y-15017D01*
X40233Y-18572D01*
X30216Y-18572D01*
X30216Y-17551D01*
X30452Y-17598D01*
X37507Y-17598D01*
X37755Y-17701D01*
X38070Y-17701D01*
X38361Y-17581D01*
X38584Y-17358D01*
X38705Y-17067D01*
X38705Y-16752D01*
X38585Y-16461D01*
X38362Y-16238D01*
X38071Y-16117D01*
X37756Y-16117D01*
X37506Y-16220D01*
X32248Y-16220D01*
X32334Y-16203D01*
X32558Y-16054D01*
X32573Y-16038D01*
X32573Y-16038D01*
X32573Y-16038D01*
X32723Y-15814D01*
X32741Y-15723D01*
X33008Y-15833D01*
X33189Y-15834D01*
X33251Y-15846D01*
X35236Y-15846D01*
X35499Y-15794D01*
X35723Y-15644D01*
X36117Y-15250D01*
X36117Y-15250D01*
X36117Y-15250D01*
X36266Y-15027D01*
X36318Y-14763D01*
X36318Y-12846D01*
X36555Y-12893D01*
X36555Y-12893D01*
X36555Y-12893D01*
X37913Y-12893D01*
X38290Y-12818D01*
X38609Y-12605D01*
X38822Y-12286D01*
X38897Y-11909D01*
X38822Y-11532D01*
X38803Y-11503D01*
X39560Y-11503D01*
X41587Y-13530D01*
X41587Y-13530D01*
X41906Y-13743D01*
X42283Y-13818D01*
X42283Y-13818D01*
X42283Y-13818D01*
X43149Y-13818D01*
X43526Y-13743D01*
X43845Y-13530D01*
X44058Y-13211D01*
X44133Y-12834D01*
X44058Y-12457D01*
X43939Y-12278D01*
X43939Y-10721D01*
X43823Y-10430D01*
X43810Y-10410D01*
X43644Y-10399D01*
X43616Y-10427D01*
X43616Y-10371D01*
X43605Y-10205D01*
X43317Y-10081D01*
X43004Y-10076D01*
X42713Y-10192D01*
X42693Y-10205D01*
X42683Y-10371D01*
X43149Y-10838D01*
X43616Y-10371D01*
X43616Y-10427D01*
X43177Y-10866D01*
X43644Y-11332D01*
X43810Y-11321D01*
X43934Y-11034D01*
X43939Y-10721D01*
X43939Y-12278D01*
X43845Y-12138D01*
X43616Y-11985D01*
X43616Y-11360D01*
X43149Y-10893D01*
X43121Y-10921D01*
X43121Y-10866D01*
X42655Y-10399D01*
X42488Y-10410D01*
X42364Y-10697D01*
X42359Y-11011D01*
X42475Y-11302D01*
X42488Y-11321D01*
X42655Y-11332D01*
X43121Y-10866D01*
X43121Y-10921D01*
X42683Y-11360D01*
X42693Y-11527D01*
X42981Y-11651D01*
X43294Y-11655D01*
X43585Y-11540D01*
X43605Y-11527D01*
X43616Y-11360D01*
X43616Y-11985D01*
X43526Y-11925D01*
X43149Y-11850D01*
X42691Y-11850D01*
X40664Y-9823D01*
X40545Y-9744D01*
X42696Y-9744D01*
X43073Y-9669D01*
X43073Y-9669D01*
X43392Y-9455D01*
X43845Y-9003D01*
X44058Y-8683D01*
X44133Y-8307D01*
X44058Y-7930D01*
X43939Y-7751D01*
X43939Y-6193D01*
X43823Y-5902D01*
X43810Y-5882D01*
X43644Y-5872D01*
X43616Y-5899D01*
X43616Y-5844D01*
X43605Y-5677D01*
X43317Y-5553D01*
X43004Y-5548D01*
X42713Y-5664D01*
X42693Y-5677D01*
X42683Y-5844D01*
X43149Y-6310D01*
X43616Y-5844D01*
X43616Y-5899D01*
X43177Y-6338D01*
X43644Y-6805D01*
X43810Y-6794D01*
X43934Y-6506D01*
X43939Y-6193D01*
X43939Y-7751D01*
X43845Y-7611D01*
X43616Y-7457D01*
X43616Y-6832D01*
X43149Y-6366D01*
X43121Y-6394D01*
X43121Y-6338D01*
X42655Y-5872D01*
X42488Y-5882D01*
X42364Y-6170D01*
X42359Y-6483D01*
X42475Y-6774D01*
X42488Y-6794D01*
X42655Y-6805D01*
X43121Y-6338D01*
X43121Y-6394D01*
X42683Y-6832D01*
X42693Y-6999D01*
X42981Y-7123D01*
X43294Y-7128D01*
X43585Y-7012D01*
X43605Y-6999D01*
X43616Y-6832D01*
X43616Y-7457D01*
X43526Y-7397D01*
X43149Y-7322D01*
X42772Y-7397D01*
X42453Y-7611D01*
X42320Y-7744D01*
X42320Y-2199D01*
X42200Y-1895D01*
X42185Y-1873D01*
X42139Y-1869D01*
X42192Y-1816D01*
X42318Y-1514D01*
X42318Y-1187D01*
X42193Y-885D01*
X41962Y-653D01*
X41660Y-528D01*
X41333Y-528D01*
X41030Y-653D01*
X41022Y-661D01*
X40500Y-661D01*
X40236Y-713D01*
X40012Y-863D01*
X39276Y-1599D01*
X39127Y-1822D01*
X39074Y-2086D01*
X39074Y-3353D01*
X38971Y-3601D01*
X38971Y-3916D01*
X39091Y-4207D01*
X39314Y-4430D01*
X39605Y-4551D01*
X39920Y-4552D01*
X40211Y-4431D01*
X40434Y-4209D01*
X40555Y-3918D01*
X40556Y-3602D01*
X40452Y-3352D01*
X40452Y-2371D01*
X40696Y-2128D01*
X40676Y-2173D01*
X40671Y-2500D01*
X40791Y-2805D01*
X40806Y-2827D01*
X40976Y-2842D01*
X41468Y-2350D01*
X41462Y-2344D01*
X41490Y-2316D01*
X41496Y-2322D01*
X41501Y-2316D01*
X41529Y-2344D01*
X41523Y-2350D01*
X42015Y-2842D01*
X42185Y-2827D01*
X42315Y-2526D01*
X42320Y-2199D01*
X42320Y-7744D01*
X42289Y-7775D01*
X41987Y-7775D01*
X41987Y-2869D01*
X41496Y-2378D01*
X41004Y-2869D01*
X41019Y-3039D01*
X41319Y-3169D01*
X41646Y-3174D01*
X41950Y-3054D01*
X41972Y-3039D01*
X41987Y-2869D01*
X41987Y-7775D01*
X40001Y-7775D01*
X39704Y-7716D01*
X38385Y-7716D01*
X38385Y-3730D01*
X38257Y-3418D01*
X38019Y-3180D01*
X37708Y-3051D01*
X37371Y-3051D01*
X37060Y-3179D01*
X36822Y-3417D01*
X36693Y-3728D01*
X36692Y-4065D01*
X36821Y-4376D01*
X37059Y-4614D01*
X37370Y-4743D01*
X37707Y-4744D01*
X38018Y-4615D01*
X38256Y-4377D01*
X38385Y-4066D01*
X38385Y-3730D01*
X38385Y-7716D01*
X37947Y-7716D01*
X37044Y-6813D01*
X37044Y-6813D01*
X36414Y-6183D01*
X35538Y-5307D01*
X35292Y-5061D01*
X34790Y-4559D01*
X34790Y-4559D01*
X34632Y-4402D01*
X34505Y-4274D01*
X33669Y-3438D01*
X33510Y-3201D01*
X33191Y-2988D01*
X32814Y-2913D01*
X32438Y-2988D01*
X32118Y-3201D01*
X31905Y-3520D01*
X31830Y-3897D01*
X31830Y-3976D01*
X31905Y-4353D01*
X32118Y-4672D01*
X32952Y-5506D01*
X32952Y-7854D01*
X32647Y-7854D01*
X32336Y-7982D01*
X32097Y-8220D01*
X31968Y-8531D01*
X31968Y-8572D01*
X30977Y-9564D01*
X30828Y-9787D01*
X30775Y-10051D01*
X30775Y-10814D01*
X30672Y-11062D01*
X30672Y-11377D01*
X30792Y-11668D01*
X31015Y-11891D01*
X31306Y-12012D01*
X31621Y-12012D01*
X31871Y-11909D01*
X32391Y-11909D01*
X33174Y-12691D01*
X33174Y-12691D01*
X33397Y-12841D01*
X33397Y-12841D01*
X33608Y-12883D01*
X33661Y-12893D01*
X33661Y-12893D01*
X33661Y-12893D01*
X34753Y-12893D01*
X34940Y-13080D01*
X34940Y-14468D01*
X34916Y-14468D01*
X34928Y-14440D01*
X34928Y-14244D01*
X34928Y-13889D01*
X34928Y-13693D01*
X34853Y-13512D01*
X34714Y-13374D01*
X34533Y-13299D01*
X34304Y-13299D01*
X34181Y-13422D01*
X34181Y-14047D01*
X34805Y-14047D01*
X34928Y-13924D01*
X34928Y-13889D01*
X34928Y-14244D01*
X34928Y-14209D01*
X34805Y-14086D01*
X34181Y-14086D01*
X34181Y-14094D01*
X34141Y-14094D01*
X34141Y-14086D01*
X34133Y-14086D01*
X34133Y-14047D01*
X34141Y-14047D01*
X34141Y-13422D01*
X34018Y-13299D01*
X33788Y-13299D01*
X33608Y-13374D01*
X33574Y-13407D01*
X33314Y-13299D01*
X33009Y-13299D01*
X32820Y-13377D01*
X32389Y-13377D01*
X32126Y-13430D01*
X31991Y-13520D01*
X31991Y-13415D01*
X31875Y-13132D01*
X31659Y-12916D01*
X31377Y-12799D01*
X31072Y-12799D01*
X30790Y-12916D01*
X30574Y-13131D01*
X30457Y-13413D01*
X30457Y-13718D01*
X30522Y-13877D01*
X30216Y-13877D01*
X30216Y-7883D01*
X31392Y-6707D01*
X31542Y-6484D01*
X31594Y-6220D01*
X31594Y-3188D01*
X31594Y-3188D01*
X31594Y-3188D01*
X31585Y-3145D01*
X31542Y-2925D01*
X31392Y-2701D01*
X31392Y-2701D01*
X30216Y-1525D01*
X30216Y-521D01*
X44524Y-521D01*
X44006Y-735D01*
X43532Y-1209D01*
X43275Y-1828D01*
X43274Y-2499D01*
X43530Y-3119D01*
X44004Y-3593D01*
X44623Y-3850D01*
X45294Y-3851D01*
X45914Y-3595D01*
X46388Y-3121D01*
X46646Y-2502D01*
X46646Y-1831D01*
X46390Y-1211D01*
X45916Y-737D01*
X45398Y-521D01*
X47116Y-521D01*
X47116Y-18572D01*
X47116Y-18572D01*
G37*
G54D24*
X47116Y-18572D02*
X45492Y-18572D01*
X45914Y-18398D01*
X46388Y-17924D01*
X46646Y-17305D01*
X46646Y-16634D01*
X46390Y-16014D01*
X45916Y-15540D01*
X45297Y-15282D01*
X44626Y-15282D01*
X44006Y-15538D01*
X43532Y-16012D01*
X43275Y-16631D01*
X43274Y-17302D01*
X43530Y-17922D01*
X44004Y-18396D01*
X44428Y-18572D01*
X40558Y-18572D01*
X40558Y-14373D01*
X40441Y-14081D01*
X40428Y-14061D01*
X40261Y-14049D01*
X40233Y-14077D01*
X40233Y-14021D01*
X40222Y-13854D01*
X39933Y-13729D01*
X39618Y-13725D01*
X39325Y-13841D01*
X39305Y-13854D01*
X39293Y-14021D01*
X39763Y-14491D01*
X40233Y-14021D01*
X40233Y-14077D01*
X39791Y-14519D01*
X40261Y-14989D01*
X40428Y-14978D01*
X40553Y-14689D01*
X40558Y-14373D01*
X40558Y-18572D01*
X40233Y-18572D01*
X40233Y-15017D01*
X39763Y-14547D01*
X39735Y-14575D01*
X39735Y-14519D01*
X39265Y-14049D01*
X39099Y-14061D01*
X38974Y-14350D01*
X38969Y-14665D01*
X39085Y-14958D01*
X39099Y-14978D01*
X39265Y-14989D01*
X39735Y-14519D01*
X39735Y-14575D01*
X39293Y-15017D01*
X39305Y-15184D01*
X39594Y-15309D01*
X39909Y-15314D01*
X40202Y-15197D01*
X40222Y-15184D01*
X40233Y-15017D01*
X40233Y-18572D01*
X30216Y-18572D01*
X30216Y-17551D01*
X30452Y-17598D01*
X37507Y-17598D01*
X37755Y-17701D01*
X38070Y-17701D01*
X38361Y-17581D01*
X38584Y-17358D01*
X38705Y-17067D01*
X38705Y-16752D01*
X38585Y-16461D01*
X38362Y-16238D01*
X38071Y-16117D01*
X37756Y-16117D01*
X37506Y-16220D01*
X32248Y-16220D01*
X32334Y-16203D01*
X32558Y-16054D01*
X32573Y-16038D01*
X32573Y-16038D01*
X32573Y-16038D01*
X32723Y-15814D01*
X32741Y-15723D01*
X33008Y-15833D01*
X33189Y-15834D01*
X33251Y-15846D01*
X35236Y-15846D01*
X35499Y-15794D01*
X35723Y-15644D01*
X36117Y-15250D01*
X36117Y-15250D01*
X36117Y-15250D01*
X36266Y-15027D01*
X36318Y-14763D01*
X36318Y-12846D01*
X36555Y-12893D01*
X36555Y-12893D01*
X36555Y-12893D01*
X37913Y-12893D01*
X38290Y-12818D01*
X38609Y-12605D01*
X38822Y-12286D01*
X38897Y-11909D01*
X38822Y-11532D01*
X38803Y-11503D01*
X39560Y-11503D01*
X41587Y-13530D01*
X41587Y-13530D01*
X41906Y-13743D01*
X42283Y-13818D01*
X42283Y-13818D01*
X42283Y-13818D01*
X43149Y-13818D01*
X43526Y-13743D01*
X43845Y-13530D01*
X44058Y-13211D01*
X44133Y-12834D01*
X44058Y-12457D01*
X43939Y-12278D01*
X43939Y-10721D01*
X43823Y-10430D01*
X43810Y-10410D01*
X43644Y-10399D01*
X43616Y-10427D01*
X43616Y-10371D01*
X43605Y-10205D01*
X43317Y-10081D01*
X43004Y-10076D01*
X42713Y-10192D01*
X42693Y-10205D01*
X42683Y-10371D01*
X43149Y-10838D01*
X43616Y-10371D01*
X43616Y-10427D01*
X43177Y-10866D01*
X43644Y-11332D01*
X43810Y-11321D01*
X43934Y-11034D01*
X43939Y-10721D01*
X43939Y-12278D01*
X43845Y-12138D01*
X43616Y-11985D01*
X43616Y-11360D01*
X43149Y-10893D01*
X43121Y-10921D01*
X43121Y-10866D01*
X42655Y-10399D01*
X42488Y-10410D01*
X42364Y-10697D01*
X42359Y-11011D01*
X42475Y-11302D01*
X42488Y-11321D01*
X42655Y-11332D01*
X43121Y-10866D01*
X43121Y-10921D01*
X42683Y-11360D01*
X42693Y-11527D01*
X42981Y-11651D01*
X43294Y-11655D01*
X43585Y-11540D01*
X43605Y-11527D01*
X43616Y-11360D01*
X43616Y-11985D01*
X43526Y-11925D01*
X43149Y-11850D01*
X42691Y-11850D01*
X40664Y-9823D01*
X40545Y-9744D01*
X42696Y-9744D01*
X43073Y-9669D01*
X43073Y-9669D01*
X43392Y-9455D01*
X43845Y-9003D01*
X44058Y-8683D01*
X44133Y-8307D01*
X44058Y-7930D01*
X43939Y-7751D01*
X43939Y-6193D01*
X43823Y-5902D01*
X43810Y-5882D01*
X43644Y-5872D01*
X43616Y-5899D01*
X43616Y-5844D01*
X43605Y-5677D01*
X43317Y-5553D01*
X43004Y-5548D01*
X42713Y-5664D01*
X42693Y-5677D01*
X42683Y-5844D01*
X43149Y-6310D01*
X43616Y-5844D01*
X43616Y-5899D01*
X43177Y-6338D01*
X43644Y-6805D01*
X43810Y-6794D01*
X43934Y-6506D01*
X43939Y-6193D01*
X43939Y-7751D01*
X43845Y-7611D01*
X43616Y-7457D01*
X43616Y-6832D01*
X43149Y-6366D01*
X43121Y-6394D01*
X43121Y-6338D01*
X42655Y-5872D01*
X42488Y-5882D01*
X42364Y-6170D01*
X42359Y-6483D01*
X42475Y-6774D01*
X42488Y-6794D01*
X42655Y-6805D01*
X43121Y-6338D01*
X43121Y-6394D01*
X42683Y-6832D01*
X42693Y-6999D01*
X42981Y-7123D01*
X43294Y-7128D01*
X43585Y-7012D01*
X43605Y-6999D01*
X43616Y-6832D01*
X43616Y-7457D01*
X43526Y-7397D01*
X43149Y-7322D01*
X42772Y-7397D01*
X42453Y-7611D01*
X42320Y-7744D01*
X42320Y-2199D01*
X42200Y-1895D01*
X42185Y-1873D01*
X42139Y-1869D01*
X42192Y-1816D01*
X42318Y-1514D01*
X42318Y-1187D01*
X42193Y-885D01*
X41962Y-653D01*
X41660Y-528D01*
X41333Y-528D01*
X41030Y-653D01*
X41022Y-661D01*
X40500Y-661D01*
X40236Y-713D01*
X40012Y-863D01*
X39276Y-1599D01*
X39127Y-1822D01*
X39074Y-2086D01*
X39074Y-3353D01*
X38971Y-3601D01*
X38971Y-3916D01*
X39091Y-4207D01*
X39314Y-4430D01*
X39605Y-4551D01*
X39920Y-4552D01*
X40211Y-4431D01*
X40434Y-4209D01*
X40555Y-3918D01*
X40556Y-3602D01*
X40452Y-3352D01*
X40452Y-2371D01*
X40696Y-2128D01*
X40676Y-2173D01*
X40671Y-2500D01*
X40791Y-2805D01*
X40806Y-2827D01*
X40976Y-2842D01*
X41468Y-2350D01*
X41462Y-2344D01*
X41490Y-2316D01*
X41496Y-2322D01*
X41501Y-2316D01*
X41529Y-2344D01*
X41523Y-2350D01*
X42015Y-2842D01*
X42185Y-2827D01*
X42315Y-2526D01*
X42320Y-2199D01*
X42320Y-7744D01*
X42289Y-7775D01*
X41987Y-7775D01*
X41987Y-2869D01*
X41496Y-2378D01*
X41004Y-2869D01*
X41019Y-3039D01*
X41319Y-3169D01*
X41646Y-3174D01*
X41950Y-3054D01*
X41972Y-3039D01*
X41987Y-2869D01*
X41987Y-7775D01*
X40001Y-7775D01*
X39704Y-7716D01*
X38385Y-7716D01*
X38385Y-3730D01*
X38257Y-3418D01*
X38019Y-3180D01*
X37708Y-3051D01*
X37371Y-3051D01*
X37060Y-3179D01*
X36822Y-3417D01*
X36693Y-3728D01*
X36692Y-4065D01*
X36821Y-4376D01*
X37059Y-4614D01*
X37370Y-4743D01*
X37707Y-4744D01*
X38018Y-4615D01*
X38256Y-4377D01*
X38385Y-4066D01*
X38385Y-3730D01*
X38385Y-7716D01*
X37947Y-7716D01*
X37044Y-6813D01*
X37044Y-6813D01*
X36414Y-6183D01*
X35538Y-5307D01*
X35292Y-5061D01*
X34790Y-4559D01*
X34790Y-4559D01*
X34632Y-4402D01*
X34505Y-4274D01*
X33669Y-3438D01*
X33510Y-3201D01*
X33191Y-2988D01*
X32814Y-2913D01*
X32438Y-2988D01*
X32118Y-3201D01*
X31905Y-3520D01*
X31830Y-3897D01*
X31830Y-3976D01*
X31905Y-4353D01*
X32118Y-4672D01*
X32952Y-5506D01*
X32952Y-7854D01*
X32647Y-7854D01*
X32336Y-7982D01*
X32097Y-8220D01*
X31968Y-8531D01*
X31968Y-8572D01*
X30977Y-9564D01*
X30828Y-9787D01*
X30775Y-10051D01*
X30775Y-10814D01*
X30672Y-11062D01*
X30672Y-11377D01*
X30792Y-11668D01*
X31015Y-11891D01*
X31306Y-12012D01*
X31621Y-12012D01*
X31871Y-11909D01*
X32391Y-11909D01*
X33174Y-12691D01*
X33174Y-12691D01*
X33397Y-12841D01*
X33397Y-12841D01*
X33608Y-12883D01*
X33661Y-12893D01*
X33661Y-12893D01*
X33661Y-12893D01*
X34753Y-12893D01*
X34940Y-13080D01*
X34940Y-14468D01*
X34916Y-14468D01*
X34928Y-14440D01*
X34928Y-14244D01*
X34928Y-13889D01*
X34928Y-13693D01*
X34853Y-13512D01*
X34714Y-13374D01*
X34533Y-13299D01*
X34304Y-13299D01*
X34181Y-13422D01*
X34181Y-14047D01*
X34805Y-14047D01*
X34928Y-13924D01*
X34928Y-13889D01*
X34928Y-14244D01*
X34928Y-14209D01*
X34805Y-14086D01*
X34181Y-14086D01*
X34181Y-14094D01*
X34141Y-14094D01*
X34141Y-14086D01*
X34133Y-14086D01*
X34133Y-14047D01*
X34141Y-14047D01*
X34141Y-13422D01*
X34018Y-13299D01*
X33788Y-13299D01*
X33608Y-13374D01*
X33574Y-13407D01*
X33314Y-13299D01*
X33009Y-13299D01*
X32820Y-13377D01*
X32389Y-13377D01*
X32126Y-13430D01*
X31991Y-13520D01*
X31991Y-13415D01*
X31875Y-13132D01*
X31659Y-12916D01*
X31377Y-12799D01*
X31072Y-12799D01*
X30790Y-12916D01*
X30574Y-13131D01*
X30457Y-13413D01*
X30457Y-13718D01*
X30522Y-13877D01*
X30216Y-13877D01*
X30216Y-7883D01*
X31392Y-6707D01*
X31542Y-6484D01*
X31594Y-6220D01*
X31594Y-3188D01*
X31594Y-3188D01*
X31594Y-3188D01*
X31585Y-3145D01*
X31542Y-2925D01*
X31392Y-2701D01*
X31392Y-2701D01*
X30216Y-1525D01*
X30216Y-521D01*
X44524Y-521D01*
X44006Y-735D01*
X43532Y-1209D01*
X43275Y-1828D01*
X43274Y-2499D01*
X43530Y-3119D01*
X44004Y-3593D01*
X44623Y-3850D01*
X45294Y-3851D01*
X45914Y-3595D01*
X46388Y-3121D01*
X46646Y-2502D01*
X46646Y-1831D01*
X46390Y-1211D01*
X45916Y-737D01*
X45398Y-521D01*
X47116Y-521D01*
X47116Y-18572D01*
M02*
